<svg width="416" height="27" viewBox="0 0 416 27" fill="none" xmlns="http://www.w3.org/2000/svg">
<path d="M21.7344 15.123H18.9512V0.269531H21.7344V15.123ZM21.7344 26.168H4.47852V16.5293H21.7344V26.168ZM7.23242 23.9121H19.0098V18.7559H7.23242V23.9121ZM9.51758 3.81445C9.50781 4.98633 9.7666 6.10938 10.2939 7.18359C10.8311 8.24805 11.5879 9.19043 12.5645 10.0107C13.5508 10.8213 14.7031 11.4512 16.0215 11.9004L14.6445 14.0391C13.1309 13.541 11.8125 12.7939 10.6895 11.7979C9.57617 10.792 8.7168 9.61035 8.11133 8.25293C7.51562 9.70801 6.64648 10.9824 5.50391 12.0762C4.36133 13.1699 3.01367 13.9902 1.46094 14.5371L0.0839844 12.3398C1.42188 11.8906 2.58887 11.2314 3.58496 10.3623C4.58105 9.4834 5.34277 8.47754 5.87012 7.34473C6.40723 6.21191 6.67578 5.03516 6.67578 3.81445V1.26562H9.51758V3.81445ZM47.5742 3.14062H43.7656V7.68164H47.457V9.82031H28.209V7.68164H31.9297V3.14062H28.0918V1.03125H47.5742V3.14062ZM49.8301 13.9512H25.8945V11.7539H49.8301V13.9512ZM46.8125 22.0078H31.5195V24.1172H47.5449V26.2266H28.7949V20.0449H44.0586V18.082H28.7656V16.002H46.8125V22.0078ZM40.9824 7.68164V3.14062H34.6836V7.68164H40.9824ZM72.2715 10.4941H76.4902V12.8379H72.2715V26.5488H69.5176V0.240234H72.2715V10.4941ZM64.8594 12.252H55.6602V17.9355C58.0918 17.9258 60.1914 17.8623 61.959 17.7451C63.7363 17.6182 65.5332 17.3887 67.3496 17.0566L67.6133 19.3125C65.6699 19.6738 63.751 19.9229 61.8564 20.0596C59.9717 20.1865 57.7012 20.2598 55.0449 20.2793H52.9062V9.99609H62.1055V4.86914H52.8477V2.61328H64.8594V12.252ZM99.4883 26.5488H96.7051V0.240234H99.4883V26.5488ZM85.4551 2.20312C86.7539 2.20312 87.916 2.58398 88.9414 3.3457C89.9668 4.09766 90.7676 5.17188 91.3438 6.56836C91.9297 7.95508 92.2227 9.56641 92.2227 11.4023C92.2227 13.248 91.9297 14.8691 91.3438 16.2656C90.7676 17.6621 89.9668 18.7412 88.9414 19.5029C87.916 20.2549 86.7539 20.6309 85.4551 20.6309C84.1367 20.6309 82.9648 20.2549 81.9395 19.5029C80.9141 18.7412 80.1084 17.667 79.5225 16.2803C78.9463 14.8838 78.6582 13.2578 78.6582 11.4023C78.6582 9.55664 78.9463 7.94043 79.5225 6.55371C80.1084 5.15723 80.9141 4.08301 81.9395 3.33105C82.9648 2.5791 84.1367 2.20312 85.4551 2.20312ZM85.4551 4.69336C84.6445 4.69336 83.9268 4.9668 83.3018 5.51367C82.6865 6.06055 82.208 6.8418 81.8662 7.85742C81.5244 8.86328 81.3535 10.0449 81.3535 11.4023C81.3535 12.7695 81.5244 13.9609 81.8662 14.9766C82.208 15.9922 82.6865 16.7734 83.3018 17.3203C83.9268 17.8672 84.6445 18.1406 85.4551 18.1406C86.2559 18.1406 86.9639 17.8672 87.5791 17.3203C88.1943 16.7734 88.6729 15.9922 89.0146 14.9766C89.3564 13.9609 89.5273 12.7695 89.5273 11.4023C89.5273 10.0449 89.3564 8.86328 89.0146 7.85742C88.6729 6.8418 88.1943 6.06055 87.5791 5.51367C86.9639 4.9668 86.2559 4.69336 85.4551 4.69336ZM127.701 23.209H103.678V20.8652H127.701V23.209ZM125.504 5.04492H121.49V13.8047H125.416V16.0312H105.787V13.8047H109.713V5.04492H105.729V2.75977H125.504V5.04492ZM118.766 13.8047V5.04492H112.467V13.8047H118.766ZM137.486 1.91016C138.824 1.91016 140.03 2.17383 141.104 2.70117C142.179 3.22852 143.019 3.96582 143.624 4.91309C144.239 5.86035 144.547 6.93945 144.547 8.15039C144.547 9.21484 144.308 10.1816 143.829 11.0508C143.351 11.9102 142.682 12.623 141.822 13.1895C140.973 13.7461 139.996 14.1123 138.893 14.2881V18.4482C141.5 18.3213 143.775 18.1309 145.719 17.877L145.924 19.957C143.746 20.3379 141.471 20.5967 139.098 20.7334C136.725 20.8604 134.205 20.9238 131.539 20.9238H129.723L129.283 18.6387H129.576C130.592 18.6289 131.705 18.6191 132.916 18.6094C134.137 18.5898 135.201 18.5703 136.109 18.5508V14.2881C134.977 14.1221 133.98 13.7607 133.121 13.2041C132.262 12.6475 131.593 11.9346 131.114 11.0654C130.646 10.1963 130.416 9.22461 130.426 8.15039C130.416 6.93945 130.709 5.86035 131.305 4.91309C131.91 3.96582 132.75 3.22852 133.824 2.70117C134.898 2.17383 136.119 1.91016 137.486 1.91016ZM137.486 4.25391C136.646 4.26367 135.895 4.42969 135.23 4.75195C134.576 5.07422 134.059 5.52832 133.678 6.11426C133.307 6.7002 133.121 7.37891 133.121 8.15039C133.121 8.92188 133.307 9.60059 133.678 10.1865C134.059 10.7725 134.581 11.2266 135.245 11.5488C135.909 11.8711 136.656 12.0273 137.486 12.0176C138.307 12.0273 139.044 11.8711 139.698 11.5488C140.353 11.2266 140.865 10.7725 141.236 10.1865C141.617 9.60059 141.812 8.92188 141.822 8.15039C141.812 7.37891 141.622 6.7002 141.251 6.11426C140.88 5.52832 140.367 5.07422 139.713 4.75195C139.059 4.42969 138.316 4.26367 137.486 4.25391ZM150.084 10.9043H154.127V13.248H150.084V26.4902H147.301V0.240234H150.084V10.9043ZM184.742 20.2793H181.959V14.8594H177.74V12.6328H181.959V9.38086H177.74V7.0957H181.959V0.269531H184.742V20.2793ZM177.652 5.57227H162.887V3.31641H169.039V0.240234H171.793V3.31641H177.652V5.57227ZM170.387 6.83203C171.559 6.83203 172.599 7.04688 173.507 7.47656C174.425 7.89648 175.143 8.4873 175.66 9.24902C176.178 10.0107 176.441 10.8848 176.451 11.8711C176.441 12.8672 176.178 13.751 175.66 14.5225C175.143 15.2842 174.425 15.8799 173.507 16.3096C172.599 16.7295 171.559 16.9395 170.387 16.9395C169.215 16.9395 168.17 16.7295 167.252 16.3096C166.344 15.8799 165.631 15.2842 165.113 14.5225C164.605 13.751 164.352 12.8672 164.352 11.8711C164.352 10.8848 164.605 10.0107 165.113 9.24902C165.631 8.4873 166.344 7.89648 167.252 7.47656C168.17 7.04688 169.215 6.83203 170.387 6.83203ZM170.387 9C169.703 9.00977 169.103 9.13672 168.585 9.38086C168.067 9.61523 167.667 9.94727 167.384 10.377C167.101 10.8066 166.959 11.3047 166.959 11.8711C166.959 12.7598 167.271 13.4678 167.896 13.9951C168.521 14.5127 169.352 14.7715 170.387 14.7715C171.061 14.7715 171.656 14.6543 172.174 14.4199C172.691 14.1855 173.097 13.8486 173.39 13.4092C173.683 12.9697 173.834 12.457 173.844 11.8711C173.834 11.3047 173.683 10.8066 173.39 10.377C173.097 9.94727 172.691 9.61523 172.174 9.38086C171.656 9.13672 171.061 9.00977 170.387 9ZM185.328 25.9336H167.604V18.5215H170.416V23.6777H185.328V25.9336ZM211.314 26.4902H208.648V12.9258H205.25V25.1426H202.701V0.767578H205.25V10.6406H208.648V0.240234H211.314V26.4902ZM199.508 5.66016H192.447V17.8184C194.166 17.7988 195.67 17.7402 196.959 17.6426C198.258 17.5449 199.576 17.3691 200.914 17.1152L201.119 19.4004C199.645 19.7031 198.189 19.9082 196.754 20.0156C195.318 20.1133 193.541 20.1719 191.422 20.1914H189.664V3.4043H199.508V5.66016ZM243.775 26.5488H240.992V0.240234H243.775V26.5488ZM236.275 4.98633H226.52V17.7305C229.205 17.7207 231.412 17.6621 233.141 17.5547C234.879 17.4473 236.627 17.2324 238.385 16.9102L238.678 19.2246C236.783 19.5664 234.884 19.8008 232.979 19.9277C231.085 20.0449 228.717 20.1035 225.875 20.1035H223.707V2.67188H236.275V4.98633ZM257.105 7.97461C257.105 9.35156 257.389 10.748 257.955 12.1641C258.521 13.5801 259.312 14.8594 260.328 16.002C261.354 17.1445 262.516 18.0234 263.814 18.6387L262.232 20.8066C260.787 20.1035 259.498 19.0635 258.365 17.6865C257.242 16.3096 256.378 14.7471 255.772 12.999C255.167 14.8936 254.273 16.5977 253.092 18.1113C251.92 19.6152 250.592 20.7383 249.107 21.4805L247.467 19.2832C248.766 18.6582 249.938 17.7402 250.982 16.5293C252.037 15.3184 252.862 13.9609 253.458 12.457C254.054 10.9434 254.352 9.44922 254.352 7.97461V5.19141H248.434V2.87695H262.818V5.19141H257.105V7.97461ZM268.414 10.6406H272.633V12.9844H268.414V26.4902H265.631V0.240234H268.414V10.6406ZM295.66 19.3418H292.877V0.269531H295.66V19.3418ZM296.451 25.9336H278.492V17.4082H281.305V23.6777H296.451V25.9336ZM281.422 2.02734C282.73 2.02734 283.912 2.30566 284.967 2.8623C286.031 3.41895 286.866 4.19043 287.472 5.17676C288.087 6.16309 288.395 7.28125 288.395 8.53125C288.395 9.80078 288.087 10.9336 287.472 11.9297C286.866 12.916 286.031 13.6875 284.967 14.2441C283.912 14.791 282.73 15.0645 281.422 15.0645C280.113 15.0645 278.927 14.791 277.862 14.2441C276.798 13.6875 275.958 12.9111 275.343 11.915C274.728 10.9189 274.42 9.79102 274.42 8.53125C274.42 7.28125 274.728 6.16309 275.343 5.17676C275.958 4.19043 276.798 3.41895 277.862 2.8623C278.927 2.30566 280.113 2.02734 281.422 2.02734ZM281.422 4.45898C280.611 4.45898 279.879 4.63477 279.225 4.98633C278.58 5.32812 278.072 5.80664 277.701 6.42188C277.33 7.03711 277.145 7.74023 277.145 8.53125C277.145 9.3418 277.325 10.0596 277.687 10.6846C278.058 11.2998 278.565 11.7783 279.21 12.1201C279.864 12.4619 280.602 12.6328 281.422 12.6328C282.223 12.6328 282.945 12.4619 283.59 12.1201C284.234 11.7783 284.742 11.2949 285.113 10.6699C285.484 10.0449 285.67 9.33203 285.67 8.53125C285.67 7.75 285.484 7.05176 285.113 6.43652C284.742 5.81152 284.229 5.32812 283.575 4.98633C282.931 4.63477 282.213 4.45898 281.422 4.45898ZM321.559 26.5488H318.775V0.240234H321.559V26.5488ZM307.525 2.20312C308.824 2.20312 309.986 2.58398 311.012 3.3457C312.037 4.09766 312.838 5.17188 313.414 6.56836C314 7.95508 314.293 9.56641 314.293 11.4023C314.293 13.248 314 14.8691 313.414 16.2656C312.838 17.6621 312.037 18.7412 311.012 19.5029C309.986 20.2549 308.824 20.6309 307.525 20.6309C306.207 20.6309 305.035 20.2549 304.01 19.5029C302.984 18.7412 302.179 17.667 301.593 16.2803C301.017 14.8838 300.729 13.2578 300.729 11.4023C300.729 9.55664 301.017 7.94043 301.593 6.55371C302.179 5.15723 302.984 4.08301 304.01 3.33105C305.035 2.5791 306.207 2.20312 307.525 2.20312ZM307.525 4.69336C306.715 4.69336 305.997 4.9668 305.372 5.51367C304.757 6.06055 304.278 6.8418 303.937 7.85742C303.595 8.86328 303.424 10.0449 303.424 11.4023C303.424 12.7695 303.595 13.9609 303.937 14.9766C304.278 15.9922 304.757 16.7734 305.372 17.3203C305.997 17.8672 306.715 18.1406 307.525 18.1406C308.326 18.1406 309.034 17.8672 309.649 17.3203C310.265 16.7734 310.743 15.9922 311.085 14.9766C311.427 13.9609 311.598 12.7695 311.598 11.4023C311.598 10.0449 311.427 8.86328 311.085 7.85742C310.743 6.8418 310.265 6.06055 309.649 5.51367C309.034 4.9668 308.326 4.69336 307.525 4.69336ZM346.373 14.8008H334.098V2.55469H346.373V14.8008ZM336.822 12.6035H343.648V4.81055H336.822V12.6035ZM353.697 8.0625H357.506V10.4062H353.697V19.459H350.914V0.210938H353.697V8.0625ZM354.811 25.9336H337.057V17.6133H339.84V23.6777H354.811V25.9336ZM383.521 12.8379H379.449V26.4609H376.666V0.240234H379.449V10.5527H383.521V12.8379ZM362.75 17.5547C366.754 17.5547 370.641 17.1641 374.41 16.3828L374.732 18.7266C372.643 19.1465 370.567 19.4443 368.507 19.6201C366.456 19.7861 364.342 19.8691 362.164 19.8691H359.996V2.78906H362.75V17.5547ZM405.377 10.4062H409.596V12.6914H405.377V26.5488H402.594V0.240234H405.377V10.4062ZM398.316 5.01562H388.824V17.7012C391.148 17.6914 393.189 17.623 394.947 17.4961C396.715 17.3691 398.492 17.1445 400.279 16.8223L400.631 19.166C398.824 19.4883 397.047 19.7129 395.299 19.8398C393.561 19.957 391.549 20.0156 389.264 20.0156H388.15H386.041V2.75977H398.316V5.01562ZM413.844 24.2051C413.473 24.2051 413.121 24.1123 412.789 23.9268C412.467 23.7412 412.213 23.4873 412.027 23.165C411.842 22.8428 411.754 22.4961 411.764 22.125C411.754 21.7539 411.842 21.4072 412.027 21.085C412.213 20.7627 412.467 20.5088 412.789 20.3232C413.121 20.1377 413.473 20.0449 413.844 20.0449C414.205 20.0449 414.547 20.1377 414.869 20.3232C415.191 20.5088 415.445 20.7627 415.631 21.085C415.826 21.4072 415.924 21.7539 415.924 22.125C415.924 22.4961 415.826 22.8428 415.631 23.165C415.445 23.4873 415.191 23.7412 414.869 23.9268C414.547 24.1123 414.205 24.2051 413.844 24.2051Z" fill="#CCCCCC"/>
</svg>
