<svg width="691" height="27" viewBox="0 0 691 27" fill="none" xmlns="http://www.w3.org/2000/svg">
<path d="M3.27734 10.3477H0.699219V2.78906H3.27734V10.3477ZM8.60938 10.3477H6.03125V2.78906H8.60938V10.3477ZM33.8926 26.4902H31.2266V0.240234H33.8926V26.4902ZM28.6191 25.2012H25.9824V16.7344H22.1738C21.7051 18.0527 21.0459 19.0684 20.1963 19.7812C19.3467 20.4941 18.3652 20.8457 17.252 20.8359C16.1191 20.8457 15.123 20.4746 14.2637 19.7227C13.4141 18.9707 12.7549 17.8965 12.2861 16.5C11.8271 15.0938 11.5977 13.4531 11.5977 11.5781C11.5977 9.70312 11.8271 8.06738 12.2861 6.6709C12.7549 5.27441 13.4141 4.20508 14.2637 3.46289C15.123 2.71094 16.1191 2.33984 17.252 2.34961C18.3652 2.33984 19.3418 2.69141 20.1816 3.4043C21.0312 4.10742 21.6953 5.11328 22.1738 6.42188H25.9824V0.738281H28.6191V25.2012ZM17.252 4.95703C16.6074 4.95703 16.0508 5.2207 15.582 5.74805C15.123 6.26562 14.7666 7.02246 14.5127 8.01855C14.2686 9.00488 14.1465 10.1914 14.1465 11.5781C14.1465 12.9648 14.2686 14.1562 14.5127 15.1523C14.7666 16.1387 15.123 16.8955 15.582 17.4229C16.0508 17.9404 16.6074 18.1992 17.252 18.1992C17.8965 18.1992 18.4531 17.9404 18.9219 17.4229C19.4004 16.8955 19.7666 16.1338 20.0205 15.1377C20.2842 14.1416 20.416 12.9551 20.416 11.5781C20.416 10.2012 20.2842 9.01465 20.0205 8.01855C19.7666 7.02246 19.4004 6.26562 18.9219 5.74805C18.4531 5.2207 17.8965 4.95703 17.252 4.95703ZM22.7451 8.67773C22.8916 9.56641 22.9648 10.5332 22.9648 11.5781C22.9648 12.6133 22.8916 13.5703 22.7451 14.4492H25.9824V8.67773H22.7451ZM50.6211 1.23633C50.6211 2.22266 51.0312 3.14551 51.8516 4.00488C52.6816 4.86426 53.8047 5.5918 55.2207 6.1875C56.6367 6.77344 58.1992 7.16406 59.9082 7.35938L58.9414 9.46875C56.7539 9.20508 54.7861 8.63379 53.0381 7.75488C51.2998 6.87598 50.0156 5.77734 49.1855 4.45898C48.3457 5.77734 47.0566 6.87598 45.3184 7.75488C43.5801 8.63379 41.627 9.20508 39.459 9.46875L38.4922 7.35938C40.2012 7.16406 41.7637 6.77344 43.1797 6.1875C44.5957 5.5918 45.7139 4.86426 46.5342 4.00488C47.3643 3.14551 47.7793 2.22266 47.7793 1.23633V0.357422H50.6211V1.23633ZM61.168 13.2188H50.5625V15.5625H58.1504V21.7734H42.8574V24.0879H58.8828V26.2266H40.1328V19.752H55.3965V17.7012H40.1035V15.5625H47.7793V13.2188H37.2324V10.9922H61.168V13.2188ZM83.6094 10.6992H87.6816V13.0137H83.6094V26.4609H80.8262V0.240234H83.6094V10.6992ZM76.7539 2.99414C76.7344 6.99805 75.7627 10.5918 73.8389 13.7754C71.915 16.959 68.8828 19.5762 64.7422 21.627L63.1895 19.459C66.4707 17.8184 69.0049 15.8164 70.792 13.4531C72.5889 11.0898 73.6289 8.375 73.9121 5.30859H64.5078V2.99414H76.7539ZM97.6426 2.11523C99.0098 2.10547 100.235 2.36426 101.319 2.8916C102.403 3.41895 103.248 4.16113 103.854 5.11816C104.469 6.06543 104.781 7.14453 104.791 8.35547C104.781 9.56641 104.469 10.6504 103.854 11.6074C103.248 12.5547 102.403 13.2969 101.319 13.834C100.235 14.3613 99.0098 14.625 97.6426 14.625C96.2754 14.625 95.0449 14.3613 93.9512 13.834C92.8672 13.2969 92.0176 12.5547 91.4023 11.6074C90.7871 10.6504 90.4844 9.56641 90.4941 8.35547C90.4844 7.14453 90.7871 6.06543 91.4023 5.11816C92.0176 4.16113 92.8672 3.41895 93.9512 2.8916C95.0449 2.36426 96.2754 2.10547 97.6426 2.11523ZM97.6426 4.51758C96.793 4.51758 96.0312 4.67871 95.3574 5.00098C94.6934 5.31348 94.1709 5.7627 93.79 6.34863C93.4189 6.9248 93.2383 7.59375 93.248 8.35547C93.2383 9.11719 93.4189 9.79102 93.79 10.377C94.1709 10.9531 94.6934 11.4023 95.3574 11.7246C96.0312 12.0371 96.793 12.1934 97.6426 12.1934C98.4922 12.1934 99.249 12.0371 99.9131 11.7246C100.587 11.4023 101.114 10.9531 101.495 10.377C101.876 9.79102 102.066 9.11719 102.066 8.35547C102.066 7.59375 101.876 6.9248 101.495 6.34863C101.114 5.7627 100.587 5.31348 99.9131 5.00098C99.249 4.67871 98.4922 4.51758 97.6426 4.51758ZM110.797 26.5488H108.014V0.240234H110.797V26.5488ZM89.2344 18.5801C92.4766 18.5801 95.5039 18.5264 98.3164 18.4189C101.139 18.3018 103.824 18.0625 106.373 17.7012L106.578 19.7227C103.961 20.2305 101.3 20.5527 98.5947 20.6895C95.8994 20.8262 92.8965 20.8945 89.5859 20.8945L89.2344 18.5801ZM143.58 25.9336H125.357V18.375H128.17V23.6777H143.58V25.9336ZM146.334 16.4414H122.34V14.1562H132.916V9.9668H135.67V14.1562H146.334V16.4414ZM135.699 1.99805C135.699 3.16992 136.1 4.27832 136.9 5.32324C137.701 6.36816 138.79 7.25684 140.167 7.98926C141.554 8.71191 143.082 9.19531 144.752 9.43945L143.668 11.6074C141.559 11.2363 139.669 10.5381 137.999 9.5127C136.329 8.47754 135.089 7.21777 134.278 5.7334C133.468 7.22754 132.228 8.49219 130.558 9.52734C128.888 10.5625 127.008 11.2559 124.918 11.6074L123.805 9.43945C125.465 9.17578 126.983 8.67773 128.36 7.94531C129.747 7.21289 130.846 6.3291 131.656 5.29395C132.467 4.24902 132.877 3.15039 132.887 1.99805V0.943359H135.699V1.99805ZM170.035 13.5996H167.252V0.240234H170.035V13.5996ZM162.154 1.41211C162.145 4.79102 161.08 7.53027 158.961 9.62988C156.842 11.7295 153.756 13.2285 149.703 14.127L148.678 11.8711C151.91 11.1973 154.4 10.1572 156.148 8.75098C157.906 7.34473 158.888 5.66016 159.093 3.69727H150.055V1.41211H162.154ZM170.035 21.3633H155.621V24.0293H170.914V26.2266H152.867V19.2832H167.252V16.9688H152.779V14.7715H170.035V21.3633ZM195.934 26.5488H193.15V0.240234H195.934V26.5488ZM181.9 2.20312C183.199 2.20312 184.361 2.58398 185.387 3.3457C186.412 4.09766 187.213 5.17188 187.789 6.56836C188.375 7.95508 188.668 9.56641 188.668 11.4023C188.668 13.248 188.375 14.8691 187.789 16.2656C187.213 17.6621 186.412 18.7412 185.387 19.5029C184.361 20.2549 183.199 20.6309 181.9 20.6309C180.582 20.6309 179.41 20.2549 178.385 19.5029C177.359 18.7412 176.554 17.667 175.968 16.2803C175.392 14.8838 175.104 13.2578 175.104 11.4023C175.104 9.55664 175.392 7.94043 175.968 6.55371C176.554 5.15723 177.359 4.08301 178.385 3.33105C179.41 2.5791 180.582 2.20312 181.9 2.20312ZM181.9 4.69336C181.09 4.69336 180.372 4.9668 179.747 5.51367C179.132 6.06055 178.653 6.8418 178.312 7.85742C177.97 8.86328 177.799 10.0449 177.799 11.4023C177.799 12.7695 177.97 13.9609 178.312 14.9766C178.653 15.9922 179.132 16.7734 179.747 17.3203C180.372 17.8672 181.09 18.1406 181.9 18.1406C182.701 18.1406 183.409 17.8672 184.024 17.3203C184.64 16.7734 185.118 15.9922 185.46 14.9766C185.802 13.9609 185.973 12.7695 185.973 11.4023C185.973 10.0449 185.802 8.86328 185.46 7.85742C185.118 6.8418 184.64 6.06055 184.024 5.51367C183.409 4.9668 182.701 4.69336 181.9 4.69336ZM220.279 3.84375H211.314V9.9375C213.854 9.92773 215.963 9.86426 217.643 9.74707C219.322 9.62012 220.992 9.40039 222.652 9.08789L222.975 11.2852C221.197 11.6465 219.4 11.8955 217.584 12.0322C215.777 12.1592 213.463 12.2227 210.641 12.2227H208.561V1.61719H220.279V3.84375ZM228.072 5.83594H231.91V8.17969H228.072V14.0977H225.289V0.240234H228.072V5.83594ZM229.068 17.8477H210.582V15.6797H218.434V13.2773H221.188V15.6797H229.068V17.8477ZM219.811 18.8145C221.344 18.8145 222.662 18.9658 223.766 19.2686C224.869 19.5615 225.714 20.001 226.3 20.5869C226.886 21.1631 227.184 21.8613 227.193 22.6816C227.184 23.4824 226.881 24.166 226.285 24.7324C225.699 25.3086 224.854 25.7432 223.751 26.0361C222.657 26.3389 221.344 26.4902 219.811 26.4902C218.268 26.4902 216.939 26.3389 215.826 26.0361C214.723 25.7432 213.873 25.3086 213.277 24.7324C212.691 24.166 212.398 23.4824 212.398 22.6816C212.398 21.8613 212.691 21.1631 213.277 20.5869C213.873 20.001 214.723 19.5615 215.826 19.2686C216.939 18.9658 218.268 18.8145 219.811 18.8145ZM219.811 20.8359C218.375 20.8555 217.262 21.0264 216.471 21.3486C215.68 21.6611 215.289 22.1055 215.299 22.6816C215.289 23.2773 215.675 23.7266 216.456 24.0293C217.247 24.3418 218.365 24.498 219.811 24.498C221.236 24.498 222.34 24.3418 223.121 24.0293C223.912 23.7266 224.312 23.2773 224.322 22.6816C224.312 22.0957 223.912 21.6465 223.121 21.334C222.33 21.0215 221.227 20.8555 219.811 20.8359ZM257.311 16.1777H233.375V13.9512H257.311V16.1777ZM254.615 25.9336H236.393V18.3164H239.205V23.6777H254.615V25.9336ZM245.328 1.11914C247.213 1.10937 248.858 1.31445 250.265 1.73438C251.681 2.1543 252.774 2.75977 253.546 3.55078C254.317 4.3418 254.703 5.2793 254.703 6.36328C254.703 7.45703 254.317 8.4043 253.546 9.20508C252.784 9.99609 251.695 10.6064 250.279 11.0361C248.863 11.4658 247.213 11.6855 245.328 11.6953C243.434 11.6855 241.778 11.4658 240.362 11.0361C238.956 10.6064 237.867 9.99609 237.096 9.20508C236.334 8.4043 235.953 7.45703 235.953 6.36328C235.953 5.2793 236.334 4.3418 237.096 3.55078C237.867 2.75977 238.956 2.1543 240.362 1.73438C241.778 1.31445 243.434 1.10937 245.328 1.11914ZM245.328 3.3457C244 3.3457 242.843 3.46777 241.856 3.71191C240.88 3.95605 240.128 4.30762 239.601 4.7666C239.073 5.21582 238.814 5.74805 238.824 6.36328C238.814 6.99805 239.068 7.54492 239.586 8.00391C240.113 8.46289 240.865 8.81445 241.842 9.05859C242.828 9.29297 243.99 9.41016 245.328 9.41016C246.666 9.41016 247.823 9.29297 248.8 9.05859C249.776 8.81445 250.523 8.46289 251.041 8.00391C251.568 7.54492 251.832 6.99805 251.832 6.36328C251.832 5.74805 251.568 5.21582 251.041 4.7666C250.514 4.30762 249.762 3.95605 248.785 3.71191C247.809 3.46777 246.656 3.3457 245.328 3.3457ZM290.562 16.2363H266.568V14.0391H290.562V16.2363ZM287.516 26.4902H284.674V20.748H269.293V18.5215H287.516V26.4902ZM287.809 11.8125H269.703V0.914062H287.633V3.11133H272.516V5.25H286.959V7.35938H272.516V9.67383H287.809V11.8125ZM314.41 13.8926H311.656V10.7578H305.914V12.9258H293.814V1.44141H296.598V4.98633H303.16V1.44141H305.914V3.84375H311.656V0.240234H314.41V13.8926ZM314.41 21.5098H300.084V23.9414H315.348V26.168H297.301V19.4297H311.656V17.2324H297.242V15.0645H314.41V21.5098ZM303.16 10.6992V7.125H296.598V10.6992H303.16ZM311.656 8.61914V5.98242H305.914V8.61914H311.656ZM339.107 8.70703H342.916V11.0215H339.107V19.8984H336.324V0.269531H339.107V8.70703ZM334.156 5.57227H318.512V3.31641H324.957V0.240234H327.74V3.31641H334.156V5.57227ZM326.334 6.83203C327.584 6.83203 328.688 7.03711 329.645 7.44727C330.611 7.85742 331.358 8.43848 331.886 9.19043C332.423 9.93262 332.691 10.7969 332.691 11.7832C332.691 12.7695 332.423 13.6338 331.886 14.376C331.358 15.1182 330.611 15.6943 329.645 16.1045C328.688 16.5049 327.584 16.7051 326.334 16.7051C325.074 16.7051 323.961 16.5049 322.994 16.1045C322.027 15.6943 321.275 15.1182 320.738 14.376C320.211 13.6338 319.947 12.7695 319.947 11.7832C319.947 10.7969 320.211 9.93262 320.738 9.19043C321.275 8.43848 322.027 7.85742 322.994 7.44727C323.961 7.03711 325.074 6.83203 326.334 6.83203ZM326.334 8.9707C325.592 8.9707 324.938 9.08789 324.371 9.32227C323.814 9.54688 323.385 9.87402 323.082 10.3037C322.779 10.7236 322.633 11.2168 322.643 11.7832C322.633 12.3398 322.779 12.8281 323.082 13.248C323.385 13.6582 323.814 13.9756 324.371 14.2002C324.938 14.4248 325.592 14.5371 326.334 14.5371C327.076 14.5371 327.726 14.4248 328.282 14.2002C328.849 13.9756 329.288 13.6582 329.601 13.248C329.913 12.8281 330.074 12.3398 330.084 11.7832C330.074 11.2168 329.913 10.7236 329.601 10.3037C329.288 9.87402 328.849 9.54688 328.282 9.32227C327.726 9.08789 327.076 8.9707 326.334 8.9707ZM340.221 25.9336H322.467V18.3457H325.25V23.6777H340.221V25.9336ZM363.57 16.7344C365.465 16.7344 367.105 16.9297 368.492 17.3203C369.889 17.7012 370.963 18.2578 371.715 18.9902C372.467 19.7129 372.848 20.582 372.857 21.5977C372.848 22.6035 372.462 23.4727 371.7 24.2051C370.948 24.9375 369.874 25.4941 368.478 25.875C367.091 26.2559 365.455 26.4414 363.57 26.4316C361.705 26.4414 360.074 26.251 358.678 25.8604C357.291 25.4795 356.222 24.9229 355.47 24.1904C354.718 23.4678 354.342 22.6035 354.342 21.5977C354.342 20.582 354.718 19.7129 355.47 18.9902C356.222 18.2578 357.291 17.7012 358.678 17.3203C360.064 16.9297 361.695 16.7344 363.57 16.7344ZM363.57 18.8438C362.252 18.8438 361.104 18.9561 360.128 19.1807C359.151 19.3955 358.404 19.7129 357.887 20.1328C357.369 20.543 357.115 21.0312 357.125 21.5977C357.115 22.1543 357.369 22.6377 357.887 23.0479C358.404 23.4482 359.146 23.7559 360.113 23.9707C361.09 24.1855 362.242 24.293 363.57 24.293C364.898 24.293 366.051 24.1855 367.027 23.9707C368.014 23.7559 368.771 23.4482 369.298 23.0479C369.825 22.6377 370.094 22.1543 370.104 21.5977C370.094 21.0312 369.825 20.543 369.298 20.1328C368.771 19.7129 368.014 19.3955 367.027 19.1807C366.051 18.9561 364.898 18.8438 363.57 18.8438ZM372.652 3.72656C372.652 5.14258 372.608 6.3584 372.521 7.37402C372.442 8.38965 372.242 9.49805 371.92 10.6992L369.195 10.4062C369.508 9.21484 369.703 8.14551 369.781 7.19824C369.859 6.24121 369.898 5.09375 369.898 3.75586H354.547V1.5293H372.652V3.72656ZM375.641 14.5664H351.764V12.3105H361.344V7.38867H364.068V12.3105H375.641V14.5664ZM398.287 8.00391H402.096V10.3184H398.287V19.3125H395.475V0.240234H398.287V8.00391ZM391.168 2.23242C391.168 4.49805 390.675 6.56348 389.688 8.42871C388.702 10.2939 387.281 11.9053 385.426 13.2627C383.58 14.6104 381.373 15.6699 378.805 16.4414L377.633 14.2148C379.674 13.5996 381.446 12.8135 382.95 11.8564C384.464 10.8994 385.66 9.80078 386.539 8.56055C387.428 7.32031 387.96 5.98242 388.136 4.54688H378.746V2.23242H391.168ZM399.371 25.9336H381.617V17.3496H384.43V23.6777H399.371V25.9336ZM415.543 0.679688C417.516 0.679688 419.2 0.855469 420.597 1.20703C422.003 1.54883 423.072 2.05664 423.805 2.73047C424.547 3.4043 424.918 4.22461 424.918 5.19141C424.918 6.1582 424.547 6.9834 423.805 7.66699C423.072 8.34082 422.003 8.85352 420.597 9.20508C419.2 9.55664 417.516 9.73242 415.543 9.73242C413.57 9.73242 411.881 9.55664 410.475 9.20508C409.078 8.85352 408.009 8.34082 407.267 7.66699C406.534 6.9834 406.168 6.1582 406.168 5.19141C406.168 4.22461 406.534 3.4043 407.267 2.73047C408.009 2.05664 409.078 1.54883 410.475 1.20703C411.881 0.855469 413.57 0.679688 415.543 0.679688ZM415.543 2.73047C413.453 2.73047 411.847 2.94531 410.724 3.375C409.601 3.80469 409.049 4.41016 409.068 5.19141C409.059 5.99219 409.605 6.60254 410.709 7.02246C411.822 7.44238 413.434 7.65234 415.543 7.65234C417.643 7.65234 419.249 7.44238 420.362 7.02246C421.485 6.60254 422.047 5.99219 422.047 5.19141C422.047 4.41016 421.48 3.80469 420.348 3.375C419.225 2.94531 417.623 2.73047 415.543 2.73047ZM427.525 13.5703H403.59V11.3438H427.525V13.5703ZM424.508 21.7441H409.215V24.0879H425.24V26.2266H406.49V19.7227H421.754V17.6719H406.461V15.5918H424.508V21.7441ZM450.143 14.8008H437.867V2.55469H450.143V14.8008ZM440.592 12.6035H447.418V4.81055H440.592V12.6035ZM457.467 8.0625H461.275V10.4062H457.467V19.459H454.684V0.210938H457.467V8.0625ZM458.58 25.9336H440.826V17.6133H443.609V23.6777H458.58V25.9336ZM487.291 12.8379H483.219V26.4609H480.436V0.240234H483.219V10.5527H487.291V12.8379ZM466.52 17.5547C470.523 17.5547 474.41 17.1641 478.18 16.3828L478.502 18.7266C476.412 19.1465 474.337 19.4443 472.276 19.6201C470.226 19.7861 468.111 19.8691 465.934 19.8691H463.766V2.78906H466.52V17.5547ZM512.721 23.2383H488.697V20.9238H499.273V15.5332H491.451V2.02734H494.234V6.53906H507.125V2.02734H509.879V15.5332H502.027V20.9238H512.721V23.2383ZM507.125 13.2773V8.79492H494.234V13.2773H507.125ZM522.623 7.41797C522.623 8.84375 522.823 10.2549 523.224 11.6514C523.624 13.0381 524.22 14.3076 525.011 15.46C525.802 16.6123 526.764 17.5352 527.896 18.2285L526.344 20.3672C525.152 19.6543 524.132 18.6826 523.282 17.4521C522.433 16.2119 521.778 14.8057 521.319 13.2334C520.821 14.9424 520.118 16.4707 519.21 17.8184C518.312 19.1562 517.242 20.2012 516.002 20.9531L514.273 18.873C515.475 18.1504 516.5 17.1934 517.35 16.002C518.199 14.8008 518.839 13.4727 519.269 12.0176C519.708 10.5527 519.928 9.05859 519.928 7.53516V2.64258H522.623V7.41797ZM537.213 26.4902H534.547V0.240234H537.213V26.4902ZM531.764 25.2012H529.127V11.7832H525.055V9.46875H529.127V0.738281H531.764V25.2012ZM564.576 23.209H540.553V20.8945H546.295V14.0391C545.201 13.4336 544.352 12.667 543.746 11.7393C543.141 10.8115 542.838 9.77148 542.838 8.61914C542.838 7.26172 543.248 6.06543 544.068 5.03027C544.898 3.99512 546.046 3.19434 547.511 2.62793C548.976 2.05176 550.641 1.76367 552.506 1.76367C554.381 1.76367 556.051 2.05176 557.516 2.62793C558.99 3.19434 560.138 3.99512 560.958 5.03027C561.788 6.06543 562.203 7.26172 562.203 8.61914C562.203 9.76172 561.91 10.792 561.324 11.71C560.738 12.6182 559.908 13.375 558.834 13.9805V20.8945H564.576V23.209ZM552.506 3.99023C551.139 3.99023 549.928 4.18066 548.873 4.56152C547.818 4.93262 546.998 5.46973 546.412 6.17285C545.826 6.86621 545.533 7.68164 545.533 8.61914C545.533 9.54688 545.826 10.3623 546.412 11.0654C546.998 11.7686 547.818 12.3154 548.873 12.7061C549.928 13.0869 551.139 13.2773 552.506 13.2773C553.863 13.2773 555.069 13.0869 556.124 12.7061C557.188 12.3154 558.019 11.7686 558.614 11.0654C559.21 10.3623 559.508 9.54688 559.508 8.61914C559.508 7.69141 559.21 6.87598 558.614 6.17285C558.028 5.46973 557.203 4.93262 556.139 4.56152C555.084 4.18066 553.873 3.99023 552.506 3.99023ZM556.021 20.8945V15.0498C554.957 15.3135 553.785 15.4453 552.506 15.4453C551.275 15.4453 550.123 15.3184 549.049 15.0645V20.8945H556.021ZM569.469 24.2051C569.098 24.2051 568.746 24.1123 568.414 23.9268C568.092 23.7412 567.838 23.4873 567.652 23.165C567.467 22.8428 567.379 22.4961 567.389 22.125C567.379 21.7539 567.467 21.4072 567.652 21.085C567.838 20.7627 568.092 20.5088 568.414 20.3232C568.746 20.1377 569.098 20.0449 569.469 20.0449C569.83 20.0449 570.172 20.1377 570.494 20.3232C570.816 20.5088 571.07 20.7627 571.256 21.085C571.451 21.4072 571.549 21.7539 571.549 22.125C571.549 22.4961 571.451 22.8428 571.256 23.165C571.07 23.4873 570.816 23.7412 570.494 23.9268C570.172 24.1123 569.83 24.2051 569.469 24.2051ZM575.094 10.3477H572.516V2.78906H575.094V10.3477ZM580.426 10.3477H577.848V2.78906H580.426V10.3477ZM604.859 26.5488H602.076V0.240234H604.859V26.5488ZM590.826 2.20312C592.125 2.20312 593.287 2.58398 594.312 3.3457C595.338 4.09766 596.139 5.17188 596.715 6.56836C597.301 7.95508 597.594 9.56641 597.594 11.4023C597.594 13.248 597.301 14.8691 596.715 16.2656C596.139 17.6621 595.338 18.7412 594.312 19.5029C593.287 20.2549 592.125 20.6309 590.826 20.6309C589.508 20.6309 588.336 20.2549 587.311 19.5029C586.285 18.7412 585.479 17.667 584.894 16.2803C584.317 14.8838 584.029 13.2578 584.029 11.4023C584.029 9.55664 584.317 7.94043 584.894 6.55371C585.479 5.15723 586.285 4.08301 587.311 3.33105C588.336 2.5791 589.508 2.20312 590.826 2.20312ZM590.826 4.69336C590.016 4.69336 589.298 4.9668 588.673 5.51367C588.058 6.06055 587.579 6.8418 587.237 7.85742C586.896 8.86328 586.725 10.0449 586.725 11.4023C586.725 12.7695 586.896 13.9609 587.237 14.9766C587.579 15.9922 588.058 16.7734 588.673 17.3203C589.298 17.8672 590.016 18.1406 590.826 18.1406C591.627 18.1406 592.335 17.8672 592.95 17.3203C593.565 16.7734 594.044 15.9922 594.386 14.9766C594.728 13.9609 594.898 12.7695 594.898 11.4023C594.898 10.0449 594.728 8.86328 594.386 7.85742C594.044 6.8418 593.565 6.06055 592.95 5.51367C592.335 4.9668 591.627 4.69336 590.826 4.69336ZM630.934 19.6641H628.15V9.76172H622.408V15.2988H610.309V1.99805H613.092V6.45117H619.654V1.99805H622.408V7.50586H628.15V0.269531H630.934V19.6641ZM631.52 25.9336H613.795V17.7598H616.607V23.6777H631.52V25.9336ZM619.654 13.043V8.58984H613.092V13.043H619.654ZM655.953 1.4707C655.934 4.88867 654.957 7.68164 653.023 9.84961C651.09 12.0078 648.082 13.6094 644 14.6543L642.975 12.4863C646.969 11.5195 649.771 9.99609 651.383 7.91602L643.385 8.50195L642.945 6.33398L652.496 5.92383C652.77 5.19141 652.94 4.43945 653.009 3.66797H644.264V1.4707H655.953ZM664.186 13.7461H661.402V8.61914H656.041V6.33398H661.402V0.240234H664.186V13.7461ZM664.186 21.4219H649.801V23.9414H664.977V26.168H647.076V19.3418H661.432V17.0273H647.018V14.8594H664.186V21.4219ZM690.611 26.4902H687.857V20.0449H672.799V17.8184H690.611V26.4902ZM678.688 9.73242H672.096V13.2188C673.824 13.1992 675.333 13.1357 676.622 13.0283C677.921 12.9209 679.254 12.7305 680.621 12.457L680.914 14.7129C679.459 14.9863 678.048 15.1768 676.681 15.2842C675.313 15.3916 673.756 15.4453 672.008 15.4453H671.129H669.4V7.68164H676.021V4.42969H669.342V2.23242H678.688V9.73242ZM690.611 16.5879H687.975V0.269531H690.611V16.5879ZM685.367 16.4414H682.701V9.08789H679.684V6.83203H682.701V0.767578H685.367V16.4414Z" fill="#CCCCCC"/>
</svg>
