<svg width="692" height="27" viewBox="0 0 692 27" fill="none" xmlns="http://www.w3.org/2000/svg">
<path d="M10.2246 4.98633C10.2246 6.24609 10.4785 7.46191 10.9863 8.63379C11.4941 9.80566 12.2168 10.8506 13.1543 11.7686C14.1016 12.6865 15.2148 13.3945 16.4941 13.8926L14.9707 16.0605C13.5547 15.4941 12.3242 14.6641 11.2793 13.5703C10.2441 12.4766 9.44336 11.2021 8.87695 9.74707C8.31055 11.29 7.47559 12.6475 6.37207 13.8193C5.26855 14.9814 3.96484 15.8652 2.46094 16.4707L0.966797 14.2441C2.28516 13.7559 3.43262 13.043 4.40918 12.1055C5.39551 11.1582 6.14746 10.0693 6.66504 8.83887C7.19238 7.6084 7.46094 6.32422 7.4707 4.98633V1.73438H10.2246V4.98633ZM22.8516 19.8105H20.0684V11.5488H14.9707V9.29297H20.0684V6.24609H14.9707V3.99023H20.0684V0.269531H22.8516V19.8105ZM23.4375 25.9336H5.71289V17.8477H8.52539V23.6777H23.4375V25.9336ZM50.8301 16.1777H26.8945V13.9512H50.8301V16.1777ZM48.1348 25.9336H29.9121V18.3164H32.7246V23.6777H48.1348V25.9336ZM38.8477 1.11914C40.7324 1.10937 42.3779 1.31445 43.7842 1.73438C45.2002 2.1543 46.2939 2.75977 47.0654 3.55078C47.8369 4.3418 48.2227 5.2793 48.2227 6.36328C48.2227 7.45703 47.8369 8.4043 47.0654 9.20508C46.3037 9.99609 45.2148 10.6064 43.7988 11.0361C42.3828 11.4658 40.7324 11.6855 38.8477 11.6953C36.9531 11.6855 35.2979 11.4658 33.8818 11.0361C32.4756 10.6064 31.3867 9.99609 30.6152 9.20508C29.8535 8.4043 29.4727 7.45703 29.4727 6.36328C29.4727 5.2793 29.8535 4.3418 30.6152 3.55078C31.3867 2.75977 32.4756 2.1543 33.8818 1.73438C35.2979 1.31445 36.9531 1.10937 38.8477 1.11914ZM38.8477 3.3457C37.5195 3.3457 36.3623 3.46777 35.376 3.71191C34.3994 3.95605 33.6475 4.30762 33.1201 4.7666C32.5928 5.21582 32.334 5.74805 32.3438 6.36328C32.334 6.99805 32.5879 7.54492 33.1055 8.00391C33.6328 8.46289 34.3848 8.81445 35.3613 9.05859C36.3477 9.29297 37.5098 9.41016 38.8477 9.41016C40.1855 9.41016 41.3428 9.29297 42.3193 9.05859C43.2959 8.81445 44.043 8.46289 44.5605 8.00391C45.0879 7.54492 45.3516 6.99805 45.3516 6.36328C45.3516 5.74805 45.0879 5.21582 44.5605 4.7666C44.0332 4.30762 43.2812 3.95605 42.3047 3.71191C41.3281 3.46777 40.1758 3.3457 38.8477 3.3457ZM82.7344 26.4902H80.0684V0.240234H82.7344V26.4902ZM77.4609 25.2012H74.8242V16.7344H71.0156C70.5469 18.0527 69.8877 19.0684 69.0381 19.7812C68.1885 20.4941 67.207 20.8457 66.0938 20.8359C64.9609 20.8457 63.9648 20.4746 63.1055 19.7227C62.2559 18.9707 61.5967 17.8965 61.1279 16.5C60.6689 15.0938 60.4395 13.4531 60.4395 11.5781C60.4395 9.70312 60.6689 8.06738 61.1279 6.6709C61.5967 5.27441 62.2559 4.20508 63.1055 3.46289C63.9648 2.71094 64.9609 2.33984 66.0938 2.34961C67.207 2.33984 68.1836 2.69141 69.0234 3.4043C69.873 4.10742 70.5371 5.11328 71.0156 6.42188H74.8242V0.738281H77.4609V25.2012ZM66.0938 4.95703C65.4492 4.95703 64.8926 5.2207 64.4238 5.74805C63.9648 6.26562 63.6084 7.02246 63.3545 8.01855C63.1104 9.00488 62.9883 10.1914 62.9883 11.5781C62.9883 12.9648 63.1104 14.1562 63.3545 15.1523C63.6084 16.1387 63.9648 16.8955 64.4238 17.4229C64.8926 17.9404 65.4492 18.1992 66.0938 18.1992C66.7383 18.1992 67.2949 17.9404 67.7637 17.4229C68.2422 16.8955 68.6084 16.1338 68.8623 15.1377C69.126 14.1416 69.2578 12.9551 69.2578 11.5781C69.2578 10.2012 69.126 9.01465 68.8623 8.01855C68.6084 7.02246 68.2422 6.26562 67.7637 5.74805C67.2949 5.2207 66.7383 4.95703 66.0938 4.95703ZM71.5869 8.67773C71.7334 9.56641 71.8066 10.5332 71.8066 11.5781C71.8066 12.6133 71.7334 13.5703 71.5869 14.4492H74.8242V8.67773H71.5869ZM99.4629 1.23633C99.4629 2.22266 99.873 3.14551 100.693 4.00488C101.523 4.86426 102.646 5.5918 104.062 6.1875C105.479 6.77344 107.041 7.16406 108.75 7.35938L107.783 9.46875C105.596 9.20508 103.628 8.63379 101.88 7.75488C100.142 6.87598 98.8574 5.77734 98.0273 4.45898C97.1875 5.77734 95.8984 6.87598 94.1602 7.75488C92.4219 8.63379 90.4688 9.20508 88.3008 9.46875L87.334 7.35938C89.043 7.16406 90.6055 6.77344 92.0215 6.1875C93.4375 5.5918 94.5557 4.86426 95.376 4.00488C96.2061 3.14551 96.6211 2.22266 96.6211 1.23633V0.357422H99.4629V1.23633ZM110.01 13.2188H99.4043V15.5625H106.992V21.7734H91.6992V24.0879H107.725V26.2266H88.9746V19.752H104.238V17.7012H88.9453V15.5625H96.6211V13.2188H86.0742V10.9922H110.01V13.2188ZM132.451 10.6992H136.523V13.0137H132.451V26.4609H129.668V0.240234H132.451V10.6992ZM125.596 2.99414C125.576 6.99805 124.604 10.5918 122.681 13.7754C120.757 16.959 117.725 19.5762 113.584 21.627L112.031 19.459C115.312 17.8184 117.847 15.8164 119.634 13.4531C121.431 11.0898 122.471 8.375 122.754 5.30859H113.35V2.99414H125.596ZM161.895 13.2188H137.93V10.9922H161.895V13.2188ZM159.053 9.08789H141.064V1.00195H158.789V3.25781H143.848V6.86133H159.053V9.08789ZM158.848 21.6562H143.555V24H159.58V26.1973H140.83V19.6055H156.094V17.4375H140.801V15.2988H158.848V21.6562ZM172.412 2.11523C173.779 2.10547 175.005 2.36426 176.089 2.8916C177.173 3.41895 178.018 4.16113 178.623 5.11816C179.238 6.06543 179.551 7.14453 179.561 8.35547C179.551 9.56641 179.238 10.6504 178.623 11.6074C178.018 12.5547 177.173 13.2969 176.089 13.834C175.005 14.3613 173.779 14.625 172.412 14.625C171.045 14.625 169.814 14.3613 168.721 13.834C167.637 13.2969 166.787 12.5547 166.172 11.6074C165.557 10.6504 165.254 9.56641 165.264 8.35547C165.254 7.14453 165.557 6.06543 166.172 5.11816C166.787 4.16113 167.637 3.41895 168.721 2.8916C169.814 2.36426 171.045 2.10547 172.412 2.11523ZM172.412 4.51758C171.562 4.51758 170.801 4.67871 170.127 5.00098C169.463 5.31348 168.94 5.7627 168.56 6.34863C168.188 6.9248 168.008 7.59375 168.018 8.35547C168.008 9.11719 168.188 9.79102 168.56 10.377C168.94 10.9531 169.463 11.4023 170.127 11.7246C170.801 12.0371 171.562 12.1934 172.412 12.1934C173.262 12.1934 174.019 12.0371 174.683 11.7246C175.356 11.4023 175.884 10.9531 176.265 10.377C176.646 9.79102 176.836 9.11719 176.836 8.35547C176.836 7.59375 176.646 6.9248 176.265 6.34863C175.884 5.7627 175.356 5.31348 174.683 5.00098C174.019 4.67871 173.262 4.51758 172.412 4.51758ZM185.566 26.5488H182.783V0.240234H185.566V26.5488ZM164.004 18.5801C167.246 18.5801 170.273 18.5264 173.086 18.4189C175.908 18.3018 178.594 18.0625 181.143 17.7012L181.348 19.7227C178.73 20.2305 176.069 20.5527 173.364 20.6895C170.669 20.8262 167.666 20.8945 164.355 20.8945L164.004 18.5801ZM206.309 5.86523C206.309 6.88086 206.562 7.85254 207.07 8.78027C207.578 9.70801 208.311 10.5283 209.268 11.2412C210.234 11.9541 211.377 12.4961 212.695 12.8672L211.406 15.0645C209.912 14.6348 208.613 13.9805 207.51 13.1016C206.416 12.2129 205.571 11.1631 204.976 9.95215C204.399 11.3096 203.55 12.4912 202.427 13.4971C201.304 14.4932 199.98 15.2402 198.457 15.7383L197.08 13.541C198.398 13.1602 199.546 12.584 200.522 11.8125C201.499 11.0312 202.246 10.1279 202.764 9.10254C203.291 8.07715 203.555 6.99805 203.555 5.86523V5.54297H197.842V3.28711H203.555V0.123047H206.338V3.28711H212.021V5.54297H206.309V5.86523ZM217.734 6.86133H221.543V9.14648H217.734V16.2363H214.951V0.240234H217.734V6.86133ZM209.268 16.8516C211.074 16.8516 212.627 17.042 213.926 17.4229C215.234 17.7939 216.235 18.3408 216.929 19.0635C217.622 19.7764 217.969 20.6406 217.969 21.6562C217.969 22.6523 217.622 23.5068 216.929 24.2197C216.235 24.9424 215.234 25.4893 213.926 25.8604C212.617 26.2412 211.064 26.4316 209.268 26.4316C207.451 26.4316 205.879 26.2412 204.551 25.8604C203.232 25.4893 202.217 24.9424 201.504 24.2197C200.801 23.5068 200.449 22.6523 200.449 21.6562C200.449 20.6406 200.801 19.7764 201.504 19.0635C202.207 18.3408 203.218 17.7939 204.536 17.4229C205.864 17.042 207.441 16.8516 209.268 16.8516ZM209.268 19.0195C207.334 19.0195 205.84 19.2441 204.785 19.6934C203.74 20.1426 203.223 20.7969 203.232 21.6562C203.223 22.4863 203.745 23.1357 204.8 23.6045C205.854 24.0635 207.344 24.293 209.268 24.293C211.162 24.293 212.632 24.0635 213.677 23.6045C214.722 23.1357 215.244 22.4863 215.244 21.6562C215.244 20.7969 214.722 20.1426 213.677 19.6934C212.642 19.2441 211.172 19.0195 209.268 19.0195ZM231.592 2.11523C232.959 2.10547 234.185 2.36426 235.269 2.8916C236.353 3.41895 237.197 4.16113 237.803 5.11816C238.418 6.06543 238.73 7.14453 238.74 8.35547C238.73 9.56641 238.418 10.6504 237.803 11.6074C237.197 12.5547 236.353 13.2969 235.269 13.834C234.185 14.3613 232.959 14.625 231.592 14.625C230.225 14.625 228.994 14.3613 227.9 13.834C226.816 13.2969 225.967 12.5547 225.352 11.6074C224.736 10.6504 224.434 9.56641 224.443 8.35547C224.434 7.14453 224.736 6.06543 225.352 5.11816C225.967 4.16113 226.816 3.41895 227.9 2.8916C228.994 2.36426 230.225 2.10547 231.592 2.11523ZM231.592 4.51758C230.742 4.51758 229.98 4.67871 229.307 5.00098C228.643 5.31348 228.12 5.7627 227.739 6.34863C227.368 6.9248 227.188 7.59375 227.197 8.35547C227.188 9.11719 227.368 9.79102 227.739 10.377C228.12 10.9531 228.643 11.4023 229.307 11.7246C229.98 12.0371 230.742 12.1934 231.592 12.1934C232.441 12.1934 233.198 12.0371 233.862 11.7246C234.536 11.4023 235.063 10.9531 235.444 10.377C235.825 9.79102 236.016 9.11719 236.016 8.35547C236.016 7.59375 235.825 6.9248 235.444 6.34863C235.063 5.7627 234.536 5.31348 233.862 5.00098C233.198 4.67871 232.441 4.51758 231.592 4.51758ZM244.746 26.5488H241.963V0.240234H244.746V26.5488ZM223.184 18.5801C226.426 18.5801 229.453 18.5264 232.266 18.4189C235.088 18.3018 237.773 18.0625 240.322 17.7012L240.527 19.7227C237.91 20.2305 235.249 20.5527 232.544 20.6895C229.849 20.8262 226.846 20.8945 223.535 20.8945L223.184 18.5801ZM261.475 9.46875H252.803V13.1016H253.564C255.713 13.1016 257.456 13.0576 258.794 12.9697C260.142 12.8818 261.484 12.7109 262.822 12.457L263.086 14.7129C261.562 14.9766 260.024 15.1523 258.472 15.2402C256.919 15.3184 254.746 15.3574 251.953 15.3574H250.049V7.35938H258.691V4.04883H250.02V1.82227H261.475V9.46875ZM270.85 16.4121H268.066V11.7832H263.145V9.55664H268.066V6.30469H263.145V4.07812H268.066V0.269531H270.85V16.4121ZM270.85 26.5195H268.066V19.9863H253.037V17.7305H270.85V26.5195ZM289.512 4.66406C289.512 6.32422 289.468 7.94043 289.38 9.5127C289.292 11.085 289.082 12.8965 288.75 14.9473L285.996 14.7422C286.289 12.8672 286.484 11.1924 286.582 9.71777C286.68 8.2334 286.733 6.76367 286.743 5.30859H276.094V3.05273H289.512V4.66406ZM282.773 18.4189C285.908 18.3018 288.662 18.0918 291.035 17.7891L291.182 19.8691C287.1 20.5137 282.1 20.8359 276.182 20.8359H274.951L274.629 18.5801C277.021 18.5605 278.818 18.5361 280.02 18.5068V10.5527H282.773V18.4189ZM295.342 11.0801H299.355V13.4531H295.342V26.4902H292.529V0.240234H295.342V11.0801ZM316.143 7.41797C316.143 8.84375 316.343 10.2549 316.743 11.6514C317.144 13.0381 317.739 14.3076 318.53 15.46C319.321 16.6123 320.283 17.5352 321.416 18.2285L319.863 20.3672C318.672 19.6543 317.651 18.6826 316.802 17.4521C315.952 16.2119 315.298 14.8057 314.839 13.2334C314.341 14.9424 313.638 16.4707 312.729 17.8184C311.831 19.1562 310.762 20.2012 309.521 20.9531L307.793 18.873C308.994 18.1504 310.02 17.1934 310.869 16.002C311.719 14.8008 312.358 13.4727 312.788 12.0176C313.228 10.5527 313.447 9.05859 313.447 7.53516V2.64258H316.143V7.41797ZM330.732 26.4902H328.066V0.240234H330.732V26.4902ZM325.283 25.2012H322.646V11.7832H318.574V9.46875H322.646V0.738281H325.283V25.2012ZM346.582 9.99609H337.91V13.8926C340.186 13.8828 342.056 13.834 343.521 13.7461C344.985 13.6484 346.465 13.4727 347.959 13.2188L348.252 15.4746C346.641 15.748 345.044 15.9287 343.462 16.0166C341.88 16.1045 339.746 16.1484 337.061 16.1484H335.127V7.85742H343.77V4.3125H335.068V2.08594H346.582V9.99609ZM355.957 19.5762H353.174V12.6914H348.281V10.4062H353.174V6.77344H348.281V4.54688H353.174V0.269531H355.957V19.5762ZM356.719 25.8457H338.701V18.1406H341.484V23.5605H356.719V25.8457ZM375.293 10.9043H370.166V14.2148C372.656 14.1074 374.922 13.9414 376.963 13.7168L377.168 15.7676C372.725 16.373 367.168 16.6758 360.498 16.6758L360.117 14.4492C362.891 14.4297 365.322 14.3906 367.412 14.332V10.9043H362.461V1.91016H375.059V4.16602H365.244V8.64844H375.293V10.9043ZM381.768 19.9277H378.984V0.240234H381.768V19.9277ZM382.588 25.9336H364.453V18.5215H367.236V23.6777H382.588V25.9336ZM414.521 14.5664H406.582V20.9824H417.275V23.2676H393.252V20.9824H403.828V14.5664H396.24V2.26172H414.287V4.51758H399.023V12.3398H414.521V14.5664ZM428.818 6.91992C428.809 8.50195 429.097 10.0596 429.683 11.5928C430.278 13.1162 431.104 14.4736 432.158 15.665C433.223 16.8564 434.424 17.75 435.762 18.3457L434.092 20.543C432.598 19.8301 431.274 18.7803 430.122 17.3936C428.97 15.9971 428.081 14.3955 427.456 12.5889C426.841 14.5322 425.942 16.251 424.761 17.7451C423.589 19.2393 422.227 20.3672 420.674 21.1289L418.975 18.7852C420.332 18.1797 421.543 17.2617 422.607 16.0312C423.682 14.8008 424.517 13.3896 425.112 11.7979C425.708 10.1963 426.006 8.57031 426.006 6.91992V2.4375H428.818V6.91992ZM440.918 26.5488H438.135V0.240234H440.918V26.5488ZM465.732 6.42188H469.541V8.73633H465.732V15.0645H462.949V0.240234H465.732V6.42188ZM458.496 1.88086C458.486 4.10742 457.993 6.11426 457.017 7.90137C456.05 9.68848 454.644 11.2168 452.798 12.4863C450.952 13.7559 448.721 14.7422 446.104 15.4453L444.99 13.2188C447.061 12.6719 448.848 11.9541 450.352 11.0654C451.865 10.167 453.057 9.13672 453.926 7.97461C454.795 6.80273 455.312 5.5332 455.479 4.16602H446.221V1.88086H458.496ZM465.732 26.1387H448.916V16.1777H465.732V26.1387ZM451.699 23.9121H462.979V18.4922H451.699V23.9121ZM480.352 4.16602C480.352 5.39648 480.605 6.56348 481.113 7.66699C481.621 8.76074 482.354 9.72266 483.311 10.5527C484.268 11.3828 485.4 12.0078 486.709 12.4277L485.186 14.5957C483.76 14.0781 482.52 13.3359 481.465 12.3691C480.42 11.3926 479.609 10.2402 479.033 8.91211C478.457 10.4258 477.603 11.7441 476.47 12.8672C475.347 13.9805 474.004 14.8203 472.441 15.3867L470.947 13.1602C472.324 12.6914 473.511 12.0127 474.507 11.124C475.503 10.2354 476.265 9.20508 476.792 8.0332C477.319 6.85156 477.588 5.60156 477.598 4.2832V1.70508H480.352V4.16602ZM492.92 15.7383H490.137V7.85742H484.6V5.57227H490.137V0.240234H492.92V15.7383ZM484.131 16.4707C485.967 16.4707 487.549 16.666 488.877 17.0566C490.205 17.4473 491.226 18.0186 491.938 18.7705C492.651 19.5225 493.008 20.4258 493.008 21.4805C493.008 22.5254 492.651 23.4189 491.938 24.1611C491.226 24.9131 490.2 25.4795 488.862 25.8604C487.534 26.251 485.957 26.4414 484.131 26.4316C482.295 26.4414 480.708 26.251 479.37 25.8604C478.042 25.4795 477.021 24.9131 476.309 24.1611C475.596 23.4189 475.244 22.5254 475.254 21.4805C475.244 20.4258 475.596 19.5225 476.309 18.7705C477.021 18.0186 478.042 17.4473 479.37 17.0566C480.708 16.666 482.295 16.4707 484.131 16.4707ZM484.131 18.6387C482.207 18.6387 480.703 18.8877 479.619 19.3857C478.545 19.874 478.008 20.5723 478.008 21.4805C478.008 22.3594 478.545 23.0381 479.619 23.5166C480.703 23.9951 482.207 24.2344 484.131 24.2344C486.055 24.2344 487.554 23.9951 488.628 23.5166C489.712 23.0381 490.254 22.3594 490.254 21.4805C490.254 20.5723 489.712 19.874 488.628 19.3857C487.554 18.8877 486.055 18.6387 484.131 18.6387ZM518.701 26.5488H515.918V0.240234H518.701V26.5488ZM504.668 2.20312C505.967 2.20312 507.129 2.58398 508.154 3.3457C509.18 4.09766 509.98 5.17188 510.557 6.56836C511.143 7.95508 511.436 9.56641 511.436 11.4023C511.436 13.248 511.143 14.8691 510.557 16.2656C509.98 17.6621 509.18 18.7412 508.154 19.5029C507.129 20.2549 505.967 20.6309 504.668 20.6309C503.35 20.6309 502.178 20.2549 501.152 19.5029C500.127 18.7412 499.321 17.667 498.735 16.2803C498.159 14.8838 497.871 13.2578 497.871 11.4023C497.871 9.55664 498.159 7.94043 498.735 6.55371C499.321 5.15723 500.127 4.08301 501.152 3.33105C502.178 2.5791 503.35 2.20312 504.668 2.20312ZM504.668 4.69336C503.857 4.69336 503.14 4.9668 502.515 5.51367C501.899 6.06055 501.421 6.8418 501.079 7.85742C500.737 8.86328 500.566 10.0449 500.566 11.4023C500.566 12.7695 500.737 13.9609 501.079 14.9766C501.421 15.9922 501.899 16.7734 502.515 17.3203C503.14 17.8672 503.857 18.1406 504.668 18.1406C505.469 18.1406 506.177 17.8672 506.792 17.3203C507.407 16.7734 507.886 15.9922 508.228 14.9766C508.569 13.9609 508.74 12.7695 508.74 11.4023C508.74 10.0449 508.569 8.86328 508.228 7.85742C507.886 6.8418 507.407 6.06055 506.792 5.51367C506.177 4.9668 505.469 4.69336 504.668 4.69336ZM550.84 8.00391H554.648V10.3477H550.84V19.5469H548.057V0.269531H550.84V8.00391ZM551.953 25.9336H534.199V17.6426H536.982V23.6777H551.953V25.9336ZM533.965 6.33398H540.85V2.14453H543.604V15.2109H531.24V2.14453H533.965V6.33398ZM540.85 12.9844V8.53125H533.965V12.9844H540.85ZM563.35 1.76367C564.453 1.76367 565.459 1.9541 566.367 2.33496C567.285 2.70605 568.057 3.23828 568.682 3.93164H575.244V0.240234H578.027V15.7383H575.244V12.1934H568.652C568.037 12.877 567.275 13.4092 566.367 13.79C565.469 14.1611 564.482 14.3418 563.408 14.332C562.109 14.3418 560.933 14.0781 559.878 13.541C558.833 13.0039 558.013 12.2568 557.417 11.2998C556.821 10.3428 556.523 9.26367 556.523 8.0625C556.523 6.86133 556.816 5.78223 557.402 4.8252C557.998 3.86816 558.813 3.12109 559.849 2.58398C560.894 2.03711 562.061 1.76367 563.35 1.76367ZM563.408 4.16602C562.598 4.15625 561.87 4.3125 561.226 4.63477C560.591 4.95703 560.093 5.41602 559.731 6.01172C559.37 6.60742 559.189 7.29102 559.189 8.0625C559.189 8.81445 559.37 9.48828 559.731 10.084C560.093 10.6797 560.591 11.1436 561.226 11.4756C561.87 11.8076 562.598 11.9688 563.408 11.959C564.199 11.9688 564.912 11.8076 565.547 11.4756C566.182 11.1436 566.675 10.6797 567.026 10.084C567.388 9.48828 567.568 8.81445 567.568 8.0625C567.568 7.29102 567.388 6.6123 567.026 6.02637C566.675 5.43066 566.182 4.97168 565.547 4.64941C564.912 4.31738 564.199 4.15625 563.408 4.16602ZM569.238 16.3242C571.055 16.3242 572.627 16.5244 573.955 16.9248C575.293 17.3252 576.318 17.9062 577.031 18.668C577.754 19.4199 578.115 20.3281 578.115 21.3926C578.115 22.4473 577.754 23.3555 577.031 24.1172C576.318 24.8789 575.293 25.4551 573.955 25.8457C572.617 26.2461 571.045 26.4414 569.238 26.4316C567.422 26.4414 565.845 26.2461 564.507 25.8457C563.169 25.4551 562.139 24.8789 561.416 24.1172C560.703 23.3555 560.352 22.4473 560.361 21.3926C560.352 20.3281 560.703 19.4199 561.416 18.668C562.139 17.9062 563.164 17.3252 564.492 16.9248C565.83 16.5244 567.412 16.3242 569.238 16.3242ZM569.238 18.4629C567.305 18.4629 565.791 18.7217 564.697 19.2393C563.613 19.7471 563.076 20.4648 563.086 21.3926C563.076 22.291 563.613 22.9893 564.697 23.4873C565.791 23.9854 567.305 24.2344 569.238 24.2344C571.182 24.2344 572.69 23.9902 573.765 23.502C574.849 23.0039 575.391 22.3008 575.391 21.3926C575.391 20.4551 574.849 19.7324 573.765 19.2246C572.69 18.7168 571.182 18.4629 569.238 18.4629ZM569.941 6.1582C570.137 6.76367 570.234 7.39844 570.234 8.0625C570.234 8.6875 570.142 9.30273 569.956 9.9082H575.244V6.1582H569.941ZM597.715 13.6289H592.178V18.4922C594.951 18.3555 597.344 18.1797 599.355 17.9648L599.561 20.0156C597.012 20.4062 594.399 20.6602 591.724 20.7773C589.058 20.8945 586.006 20.9629 582.568 20.9824L582.217 18.668C584.99 18.668 587.383 18.6387 589.395 18.5801V13.6289H584.121V2.67188H597.598V4.92773H586.875V11.3438H597.715V13.6289ZM603.779 26.5488H600.996V0.240234H603.779V26.5488ZM615.117 2.20312C616.299 2.20312 617.363 2.52539 618.311 3.16992C619.258 3.80469 620.024 4.71777 620.61 5.90918C621.206 7.09082 621.572 8.48242 621.709 10.084H627.129V0.240234H629.883V26.5488H627.129V12.3398H621.738C621.641 14.0195 621.299 15.4844 620.713 16.7344C620.127 17.9844 619.351 18.9463 618.384 19.6201C617.417 20.2939 616.328 20.6309 615.117 20.6309C613.809 20.6309 612.651 20.2549 611.646 19.5029C610.64 18.7412 609.854 17.667 609.287 16.2803C608.73 14.8838 608.457 13.2578 608.467 11.4023C608.457 9.55664 608.73 7.94043 609.287 6.55371C609.854 5.15723 610.64 4.08301 611.646 3.33105C612.661 2.5791 613.818 2.20312 615.117 2.20312ZM615.117 4.69336C614.326 4.69336 613.628 4.9668 613.022 5.51367C612.417 6.06055 611.943 6.8418 611.602 7.85742C611.27 8.86328 611.104 10.0449 611.104 11.4023C611.104 12.7695 611.27 13.9609 611.602 14.9766C611.943 15.9922 612.417 16.7734 613.022 17.3203C613.628 17.8672 614.326 18.1406 615.117 18.1406C615.908 18.1406 616.606 17.8672 617.212 17.3203C617.817 16.7734 618.286 15.9922 618.618 14.9766C618.96 13.9609 619.131 12.7695 619.131 11.4023C619.131 10.0449 618.96 8.86328 618.618 7.85742C618.286 6.8418 617.817 6.06055 617.212 5.51367C616.606 4.9668 615.908 4.69336 615.117 4.69336ZM650.361 17.584C650.361 18.7656 650.654 19.9033 651.24 20.9971C651.836 22.0811 652.705 22.9648 653.848 23.6484C654.619 23.1504 655.273 22.5596 655.811 21.876C656.357 21.1924 656.768 20.4795 657.041 19.7373C657.314 18.9951 657.451 18.2773 657.451 17.584V16.3242H660.176V17.584C660.176 18.502 660.376 19.3906 660.776 20.25C661.177 21.0996 661.768 21.8564 662.549 22.5205C663.33 23.1846 664.277 23.6973 665.391 24.0586L664.014 26.1094C662.744 25.6699 661.665 25.0352 660.776 24.2051C659.897 23.3848 659.219 22.4229 658.74 21.3193C658.301 22.4326 657.676 23.4287 656.865 24.3076C656.064 25.1865 655.088 25.8652 653.936 26.3438C652.725 25.8848 651.704 25.2256 650.874 24.3662C650.054 23.5068 649.429 22.5156 648.999 21.3926C648.511 22.457 647.832 23.3994 646.963 24.2197C646.094 25.04 645.059 25.6699 643.857 26.1094L642.451 24.0586C643.535 23.668 644.468 23.1309 645.249 22.4473C646.04 21.7637 646.636 21.002 647.036 20.1621C647.446 19.3125 647.656 18.4531 647.666 17.584V16.3242H650.361V17.584ZM663.018 15.2109H660.234V0.269531H663.018V15.2109ZM648.779 1.70508C650.107 1.70508 651.299 1.96875 652.354 2.49609C653.418 3.02344 654.248 3.76074 654.844 4.70801C655.449 5.64551 655.752 6.71484 655.752 7.91602C655.752 9.10742 655.449 10.1719 654.844 11.1094C654.248 12.0371 653.418 12.7646 652.354 13.292C651.299 13.8096 650.107 14.0684 648.779 14.0684C647.451 14.0684 646.255 13.8096 645.19 13.292C644.126 12.7646 643.291 12.0371 642.686 11.1094C642.08 10.1719 641.777 9.10742 641.777 7.91602C641.777 6.71484 642.08 5.64551 642.686 4.70801C643.291 3.76074 644.126 3.02344 645.19 2.49609C646.255 1.96875 647.451 1.70508 648.779 1.70508ZM648.779 4.07812C647.959 4.06836 647.222 4.22461 646.567 4.54688C645.923 4.85937 645.415 5.30859 645.044 5.89453C644.683 6.48047 644.502 7.1543 644.502 7.91602C644.502 8.66797 644.683 9.33691 645.044 9.92285C645.415 10.499 645.923 10.9482 646.567 11.2705C647.222 11.5928 647.959 11.7539 648.779 11.7539C649.59 11.7539 650.317 11.5928 650.962 11.2705C651.606 10.9482 652.109 10.499 652.471 9.92285C652.842 9.33691 653.027 8.66797 653.027 7.91602C653.027 7.1543 652.842 6.48047 652.471 5.89453C652.109 5.30859 651.606 4.85937 650.962 4.54688C650.317 4.22461 649.59 4.06836 648.779 4.07812ZM672.891 18.7559H685.225V15.9727H688.008V26.168H670.137V15.9727H672.891V18.7559ZM685.225 23.9414V20.9238H672.891V23.9414H685.225ZM691.113 14.332H667.178V12.0176H691.113V14.332ZM680.566 1.64648C680.566 2.63281 680.981 3.59473 681.812 4.53223C682.651 5.45996 683.774 6.25586 685.181 6.91992C686.597 7.57422 688.135 8.00391 689.795 8.20898L688.799 10.4062C686.65 10.1035 684.712 9.47363 682.983 8.5166C681.265 7.55957 679.985 6.39258 679.146 5.01562C678.306 6.40234 677.021 7.57422 675.293 8.53125C673.574 9.47852 671.65 10.1035 669.521 10.4062L668.467 8.20898C670.146 7.99414 671.694 7.56445 673.11 6.91992C674.526 6.27539 675.649 5.48926 676.479 4.56152C677.31 3.63379 677.725 2.66211 677.725 1.64648V0.533203H680.566V1.64648Z" fill="#CCCCCC"/>
</svg>
