<svg width="685" height="27" viewBox="0 0 685 27" fill="none" xmlns="http://www.w3.org/2000/svg">
<path d="M20.7637 26.4902H17.9805V0.240234H20.7637V26.4902ZM3.33203 17.4082C7.62891 17.3789 11.6523 16.9785 15.4023 16.207L15.7832 18.5508C13.5566 19 11.3789 19.3223 9.25 19.5176C7.12109 19.7129 4.96289 19.8105 2.77539 19.8105H0.578125V2.78906H3.33203V17.4082ZM45.3438 10.4062H49.5625V12.6914H45.3438V26.5488H42.5605V0.240234H45.3438V10.4062ZM38.2832 5.01562H28.791V17.7012C31.1152 17.6914 33.1562 17.623 34.9141 17.4961C36.6816 17.3691 38.459 17.1445 40.2461 16.8223L40.5977 19.166C38.791 19.4883 37.0137 19.7129 35.2656 19.8398C33.5273 19.957 31.5156 20.0156 29.2305 20.0156H28.1172H26.0078V2.75977H38.2832V5.01562ZM53.8105 24.2051C53.4395 24.2051 53.0879 24.1123 52.7559 23.9268C52.4336 23.7412 52.1797 23.4873 51.9941 23.165C51.8086 22.8428 51.7207 22.4961 51.7305 22.125C51.7207 21.7539 51.8086 21.4072 51.9941 21.085C52.1797 20.7627 52.4336 20.5088 52.7559 20.3232C53.0879 20.1377 53.4395 20.0449 53.8105 20.0449C54.1719 20.0449 54.5137 20.1377 54.8359 20.3232C55.1582 20.5088 55.4121 20.7627 55.5977 21.085C55.793 21.4072 55.8906 21.7539 55.8906 22.125C55.8906 22.4961 55.793 22.8428 55.5977 23.165C55.4121 23.4873 55.1582 23.7412 54.8359 23.9268C54.5137 24.1123 54.1719 24.2051 53.8105 24.2051ZM80.8809 2.20312C82.1797 2.20312 83.3369 2.5791 84.3525 3.33105C85.3779 4.08301 86.1738 5.15723 86.7402 6.55371C87.3164 7.94043 87.6094 9.55664 87.6191 11.4023C87.6094 13.2578 87.3164 14.8838 86.7402 16.2803C86.1738 17.667 85.3779 18.7412 84.3525 19.5029C83.3369 20.2549 82.1797 20.6309 80.8809 20.6309C79.5723 20.6309 78.4102 20.2549 77.3945 19.5029C76.3789 18.7412 75.583 17.667 75.0068 16.2803C74.4404 14.8838 74.1621 13.2578 74.1719 11.4023C74.1621 9.55664 74.4404 7.94043 75.0068 6.55371C75.583 5.16699 76.3789 4.09766 77.3945 3.3457C78.4102 2.58398 79.5723 2.20312 80.8809 2.20312ZM80.8809 4.69336C80.0801 4.69336 79.3721 4.9668 78.7568 5.51367C78.1514 6.06055 77.6777 6.8418 77.3359 7.85742C77.0039 8.86328 76.8379 10.0449 76.8379 11.4023C76.8379 12.7695 77.0039 13.9609 77.3359 14.9766C77.6777 15.9922 78.1514 16.7734 78.7568 17.3203C79.3721 17.8672 80.0801 18.1406 80.8809 18.1406C81.6914 18.1406 82.4043 17.8672 83.0195 17.3203C83.6348 16.7734 84.1084 15.9922 84.4404 14.9766C84.7822 13.9609 84.9531 12.7695 84.9531 11.4023C84.9531 10.0449 84.7822 8.86328 84.4404 7.85742C84.1084 6.8418 83.6348 6.06055 83.0195 5.51367C82.4043 4.9668 81.6914 4.69336 80.8809 4.69336ZM94.2988 10.5234H98.5176V12.8672H94.2988V26.4902H91.5156V0.240234H94.2988V10.5234ZM114.367 4.83984H104.143V9.9082H113.371V12.1348H104.143V18.0234C106.525 18.0137 108.615 17.9502 110.412 17.833C112.209 17.7158 114.055 17.5059 115.949 17.2031L116.242 19.459C114.27 19.7812 112.321 20.001 110.397 20.1182C108.483 20.2256 106.193 20.2793 103.527 20.2793H101.389V2.55469H114.367V4.83984ZM121.604 26.4902H118.791V0.240234H121.604V26.4902ZM139.035 3.96094C139.035 5.34766 139.479 6.69531 140.368 8.00391C141.267 9.3125 142.453 10.4307 143.928 11.3584C145.402 12.2764 146.975 12.8867 148.645 13.1895L147.355 15.5039C145.959 15.2012 144.621 14.7031 143.342 14.0098C142.062 13.3164 140.92 12.4717 139.914 11.4756C138.918 10.4697 138.142 9.36133 137.585 8.15039C137.019 9.35156 136.237 10.4551 135.241 11.4609C134.255 12.457 133.122 13.3018 131.843 13.9951C130.563 14.6885 129.221 15.1914 127.814 15.5039L126.584 13.1895C128.234 12.877 129.792 12.2617 131.257 11.3438C132.722 10.416 133.894 9.30273 134.772 8.00391C135.661 6.69531 136.105 5.34766 136.105 3.96094V1.96875H139.035V3.96094ZM149.729 23.0332H125.705V20.7188H149.729V23.0332ZM172.932 16.4414H154.65V2.4082H172.668V4.66406H157.463V8.20898H172.111V10.4062H157.463V14.2148H172.932V16.4414ZM175.656 23.1797H151.633V20.8945H175.656V23.1797ZM198.01 10.6992H202.082V13.0137H198.01V26.4609H195.227V0.240234H198.01V10.6992ZM191.154 2.99414C191.135 6.99805 190.163 10.5918 188.239 13.7754C186.315 16.959 183.283 19.5762 179.143 21.627L177.59 19.459C180.871 17.8184 183.405 15.8164 185.192 13.4531C186.989 11.0898 188.029 8.375 188.312 5.30859H178.908V2.99414H191.154ZM220.539 4.95703C220.539 6.08008 220.803 7.16406 221.33 8.20898C221.867 9.25391 222.629 10.1816 223.615 10.9922C224.611 11.8027 225.773 12.418 227.102 12.8379L225.666 15.0059C224.172 14.5176 222.863 13.7754 221.74 12.7793C220.627 11.7832 219.772 10.6211 219.177 9.29297C218.581 10.7383 217.712 11.998 216.569 13.0723C215.437 14.1465 214.094 14.957 212.541 15.5039L211.105 13.3652C212.434 12.9062 213.596 12.2471 214.592 11.3877C215.588 10.5186 216.354 9.52734 216.892 8.41406C217.438 7.30078 217.717 6.14844 217.727 4.95703V4.22461H211.838V1.96875H226.311V4.22461H220.539V4.95703ZM232.58 16.0898H229.797V0.240234H232.58V16.0898ZM232.58 26.4902H229.797V19.6641H214.797V17.4082H232.58V26.4902ZM258.596 14.5371H255.842V8.73633H250.92V6.45117H255.842V0.240234H258.596V14.5371ZM244.27 18.7266H255.842V15.709H258.596V26.168H241.516V15.709H244.27V18.7266ZM255.842 23.9121V20.8945H244.27V23.9121H255.842ZM246.145 4.3418C246.145 5.42578 246.398 6.49023 246.906 7.53516C247.414 8.58008 248.146 9.5127 249.104 10.333C250.061 11.1533 251.184 11.7832 252.473 12.2227L251.037 14.3906C249.582 13.8828 248.317 13.1309 247.243 12.1348C246.179 11.1387 245.354 9.98145 244.768 8.66309C244.182 10.1377 243.322 11.4268 242.189 12.5303C241.066 13.624 239.738 14.4395 238.205 14.9766L236.77 12.7793C238.088 12.3203 239.24 11.6562 240.227 10.7871C241.213 9.91797 241.97 8.92188 242.497 7.79883C243.034 6.67578 243.303 5.51367 243.303 4.3125V3.96094H237.619V1.70508H251.77V3.96094H246.145V4.3418ZM279.25 5.04492C279.25 6.22656 279.504 7.37402 280.012 8.4873C280.52 9.60059 281.252 10.5918 282.209 11.4609C283.166 12.3203 284.289 12.9746 285.578 13.4238L284.055 15.5918C282.639 15.0449 281.403 14.2539 280.349 13.2188C279.294 12.1836 278.483 10.9775 277.917 9.60059C277.341 11.1436 276.501 12.4863 275.397 13.6289C274.294 14.7715 272.98 15.6309 271.457 16.207L269.963 14.0098C271.301 13.5312 272.458 12.833 273.435 11.915C274.411 10.9971 275.163 9.9375 275.69 8.73633C276.218 7.53516 276.486 6.27539 276.496 4.95703V1.85156H279.25V5.04492ZM291.877 19.8398H289.094V8.53125H283.557V6.24609H289.094V0.269531H291.877V19.8398ZM292.463 25.9336H274.738V17.6426H277.551V23.6777H292.463V25.9336ZM307.258 4.37109H299.67V7.30078H306.965V9.43945H299.67V12.6328C301.525 12.6133 303.088 12.5596 304.357 12.4717C305.627 12.374 306.906 12.2031 308.195 11.959L308.459 14.2441C307.102 14.498 305.778 14.6738 304.489 14.7715C303.21 14.8691 301.652 14.918 299.816 14.918H298.703H297.004V2.11523H307.258V4.37109ZM318.303 16.207H315.666V9.20508H312.443V16.002H309.836V0.738281H312.443V6.94922H315.666V0.269531H318.303V16.207ZM318.303 26.4902H315.549V19.7227H300.461V17.4668H318.303V26.4902ZM342.473 8.70703H346.281V11.0215H342.473V19.8984H339.689V0.269531H342.473V8.70703ZM337.521 5.57227H321.877V3.31641H328.322V0.240234H331.105V3.31641H337.521V5.57227ZM329.699 6.83203C330.949 6.83203 332.053 7.03711 333.01 7.44727C333.977 7.85742 334.724 8.43848 335.251 9.19043C335.788 9.93262 336.057 10.7969 336.057 11.7832C336.057 12.7695 335.788 13.6338 335.251 14.376C334.724 15.1182 333.977 15.6943 333.01 16.1045C332.053 16.5049 330.949 16.7051 329.699 16.7051C328.439 16.7051 327.326 16.5049 326.359 16.1045C325.393 15.6943 324.641 15.1182 324.104 14.376C323.576 13.6338 323.312 12.7695 323.312 11.7832C323.312 10.7969 323.576 9.93262 324.104 9.19043C324.641 8.43848 325.393 7.85742 326.359 7.44727C327.326 7.03711 328.439 6.83203 329.699 6.83203ZM329.699 8.9707C328.957 8.9707 328.303 9.08789 327.736 9.32227C327.18 9.54688 326.75 9.87402 326.447 10.3037C326.145 10.7236 325.998 11.2168 326.008 11.7832C325.998 12.3398 326.145 12.8281 326.447 13.248C326.75 13.6582 327.18 13.9756 327.736 14.2002C328.303 14.4248 328.957 14.5371 329.699 14.5371C330.441 14.5371 331.091 14.4248 331.647 14.2002C332.214 13.9756 332.653 13.6582 332.966 13.248C333.278 12.8281 333.439 12.3398 333.449 11.7832C333.439 11.2168 333.278 10.7236 332.966 10.3037C332.653 9.87402 332.214 9.54688 331.647 9.32227C331.091 9.08789 330.441 8.9707 329.699 8.9707ZM343.586 25.9336H325.832V18.3457H328.615V23.6777H343.586V25.9336ZM375.549 10.4062H379.768V12.6914H375.549V26.5488H372.766V0.240234H375.549V10.4062ZM368.488 5.01562H358.996V17.7012C361.32 17.6914 363.361 17.623 365.119 17.4961C366.887 17.3691 368.664 17.1445 370.451 16.8223L370.803 19.166C368.996 19.4883 367.219 19.7129 365.471 19.8398C363.732 19.957 361.721 20.0156 359.436 20.0156H358.322H356.213V2.75977H368.488V5.01562ZM405.373 6.24609H401.652V9.58594H405.373V11.9004H401.652V15.7383H398.869V0.240234H401.652V3.96094H405.373V6.24609ZM388.41 1.76367C389.738 1.76367 390.93 2.02734 391.984 2.55469C393.049 3.08203 393.884 3.81934 394.489 4.7666C395.095 5.71387 395.402 6.79297 395.412 8.00391C395.402 9.20508 395.095 10.2793 394.489 11.2266C393.884 12.1641 393.049 12.9014 391.984 13.4385C390.93 13.9658 389.738 14.2344 388.41 14.2441C387.082 14.2344 385.886 13.9658 384.821 13.4385C383.757 12.9014 382.922 12.1641 382.316 11.2266C381.721 10.2793 381.428 9.20508 381.438 8.00391C381.428 6.79297 381.721 5.71387 382.316 4.7666C382.922 3.81934 383.757 3.08203 384.821 2.55469C385.886 2.02734 387.082 1.76367 388.41 1.76367ZM388.41 4.10742C387.6 4.10742 386.867 4.27344 386.213 4.60547C385.568 4.92773 385.061 5.38672 384.689 5.98242C384.328 6.56836 384.152 7.24219 384.162 8.00391C384.152 8.76562 384.328 9.44434 384.689 10.04C385.051 10.626 385.554 11.0801 386.198 11.4023C386.853 11.7246 387.59 11.8906 388.41 11.9004C389.23 11.8906 389.963 11.7246 390.607 11.4023C391.262 11.0801 391.77 10.626 392.131 10.04C392.502 9.44434 392.688 8.76562 392.688 8.00391C392.688 7.24219 392.502 6.56836 392.131 5.98242C391.76 5.38672 391.247 4.92773 390.593 4.60547C389.948 4.27344 389.221 4.10742 388.41 4.10742ZM393.186 16.4414C394.963 16.4414 396.506 16.6416 397.814 17.042C399.123 17.4326 400.129 18.0039 400.832 18.7559C401.535 19.5078 401.887 20.4062 401.887 21.4512C401.887 22.4863 401.535 23.3799 400.832 24.1318C400.129 24.8838 399.123 25.4551 397.814 25.8457C396.506 26.2461 394.963 26.4414 393.186 26.4316C391.389 26.4414 389.826 26.2461 388.498 25.8457C387.17 25.4551 386.149 24.8838 385.437 24.1318C384.724 23.3799 384.367 22.4863 384.367 21.4512C384.367 20.4062 384.724 19.5078 385.437 18.7559C386.149 18.0039 387.165 17.4326 388.483 17.042C389.812 16.6416 391.379 16.4414 393.186 16.4414ZM393.186 18.6973C391.271 18.6973 389.782 18.9365 388.718 19.415C387.663 19.8936 387.141 20.5723 387.15 21.4512C387.141 22.3398 387.663 23.0234 388.718 23.502C389.772 23.9707 391.262 24.2051 393.186 24.2051C395.09 24.2051 396.56 23.9707 397.595 23.502C398.64 23.0234 399.162 22.3398 399.162 21.4512C399.162 20.5723 398.64 19.8936 397.595 19.415C396.55 18.9365 395.08 18.6973 393.186 18.6973ZM427.58 8.70703H431.389V11.0215H427.58V19.8984H424.797V0.269531H427.58V8.70703ZM422.629 5.57227H406.984V3.31641H413.43V0.240234H416.213V3.31641H422.629V5.57227ZM414.807 6.83203C416.057 6.83203 417.16 7.03711 418.117 7.44727C419.084 7.85742 419.831 8.43848 420.358 9.19043C420.896 9.93262 421.164 10.7969 421.164 11.7832C421.164 12.7695 420.896 13.6338 420.358 14.376C419.831 15.1182 419.084 15.6943 418.117 16.1045C417.16 16.5049 416.057 16.7051 414.807 16.7051C413.547 16.7051 412.434 16.5049 411.467 16.1045C410.5 15.6943 409.748 15.1182 409.211 14.376C408.684 13.6338 408.42 12.7695 408.42 11.7832C408.42 10.7969 408.684 9.93262 409.211 9.19043C409.748 8.43848 410.5 7.85742 411.467 7.44727C412.434 7.03711 413.547 6.83203 414.807 6.83203ZM414.807 8.9707C414.064 8.9707 413.41 9.08789 412.844 9.32227C412.287 9.54688 411.857 9.87402 411.555 10.3037C411.252 10.7236 411.105 11.2168 411.115 11.7832C411.105 12.3398 411.252 12.8281 411.555 13.248C411.857 13.6582 412.287 13.9756 412.844 14.2002C413.41 14.4248 414.064 14.5371 414.807 14.5371C415.549 14.5371 416.198 14.4248 416.755 14.2002C417.321 13.9756 417.761 13.6582 418.073 13.248C418.386 12.8281 418.547 12.3398 418.557 11.7832C418.547 11.2168 418.386 10.7236 418.073 10.3037C417.761 9.87402 417.321 9.54688 416.755 9.32227C416.198 9.08789 415.549 8.9707 414.807 8.9707ZM428.693 25.9336H410.939V18.3457H413.723V23.6777H428.693V25.9336ZM448.234 5.19141C448.234 6.1875 448.435 7.15918 448.835 8.10645C449.235 9.05371 449.826 9.90332 450.607 10.6553C451.398 11.4072 452.346 11.998 453.449 12.4277L451.955 14.5664C450.783 14.0977 449.768 13.4336 448.908 12.5742C448.059 11.7148 447.39 10.7188 446.901 9.58594C446.403 10.8555 445.705 11.9834 444.807 12.9697C443.908 13.9463 442.844 14.7031 441.613 15.2402L440.09 13.1016C441.232 12.6035 442.214 11.9248 443.034 11.0654C443.854 10.2061 444.475 9.26367 444.895 8.23828C445.324 7.21289 445.539 6.19727 445.539 5.19141V1.82227H448.234V5.19141ZM462.59 16.1191H459.953V9.26367H456.877V15.9727H454.299V0.708984H456.877V6.94922H459.953V0.269531H462.59V16.1191ZM462.59 26.4902H459.836V19.752H444.748V17.4961H462.59V26.4902ZM474.689 2.11523C476.057 2.10547 477.282 2.36426 478.366 2.8916C479.45 3.41895 480.295 4.16113 480.9 5.11816C481.516 6.06543 481.828 7.14453 481.838 8.35547C481.828 9.56641 481.516 10.6504 480.9 11.6074C480.295 12.5547 479.45 13.2969 478.366 13.834C477.282 14.3613 476.057 14.625 474.689 14.625C473.322 14.625 472.092 14.3613 470.998 13.834C469.914 13.2969 469.064 12.5547 468.449 11.6074C467.834 10.6504 467.531 9.56641 467.541 8.35547C467.531 7.14453 467.834 6.06543 468.449 5.11816C469.064 4.16113 469.914 3.41895 470.998 2.8916C472.092 2.36426 473.322 2.10547 474.689 2.11523ZM474.689 4.51758C473.84 4.51758 473.078 4.67871 472.404 5.00098C471.74 5.31348 471.218 5.7627 470.837 6.34863C470.466 6.9248 470.285 7.59375 470.295 8.35547C470.285 9.11719 470.466 9.79102 470.837 10.377C471.218 10.9531 471.74 11.4023 472.404 11.7246C473.078 12.0371 473.84 12.1934 474.689 12.1934C475.539 12.1934 476.296 12.0371 476.96 11.7246C477.634 11.4023 478.161 10.9531 478.542 10.377C478.923 9.79102 479.113 9.11719 479.113 8.35547C479.113 7.59375 478.923 6.9248 478.542 6.34863C478.161 5.7627 477.634 5.31348 476.96 5.00098C476.296 4.67871 475.539 4.51758 474.689 4.51758ZM487.844 26.5488H485.061V0.240234H487.844V26.5488ZM466.281 18.5801C469.523 18.5801 472.551 18.5264 475.363 18.4189C478.186 18.3018 480.871 18.0625 483.42 17.7012L483.625 19.7227C481.008 20.2305 478.347 20.5527 475.642 20.6895C472.946 20.8262 469.943 20.8945 466.633 20.8945L466.281 18.5801ZM514.299 4.16602H511.809V10.4355C513.186 10.3379 514.396 10.2305 515.441 10.1133L515.559 12.1641C513.215 12.5156 510.744 12.7451 508.146 12.8525C505.549 12.96 502.736 13.0137 499.709 13.0137L499.387 10.7871L502.609 10.7725V4.16602H500.119V1.96875H514.299V4.16602ZM520.012 5.80664H523.82V8.12109H520.012V13.8047H517.229V0.240234H520.012V5.80664ZM520.012 21.5098H505.832V24H520.92V26.2266H503.107V19.4883H517.258V17.2031H503.049V15.0059H520.012V21.5098ZM505.305 10.7285C506.555 10.6992 507.814 10.6553 509.084 10.5967V4.16602H505.305V10.7285ZM535.48 12.3984H528.83V17.7891C530.48 17.7793 531.989 17.7305 533.356 17.6426C534.733 17.5449 536.164 17.3594 537.648 17.0859L537.883 19.3711C536.232 19.6641 534.655 19.8594 533.151 19.957C531.657 20.0547 529.924 20.1133 527.951 20.1328H526.135V10.1719H532.814V5.30859H526.105V3.05273H535.48V12.3984ZM547.844 26.4902H545.178V0.240234H547.844V26.4902ZM542.453 25.1426H539.816V11.7832H536.711V9.52734H539.816V0.826172H542.453V25.1426ZM572.541 16.4414H554.26V2.4082H572.277V4.66406H557.072V8.20898H571.721V10.4062H557.072V14.2148H572.541V16.4414ZM575.266 23.1797H551.242V20.8945H575.266V23.1797ZM601.193 23.3555H577.17V21.0117H587.746V16.4121H580.1V8.0625H595.51V4.37109H580.041V2.08594H598.264V10.2891H582.854V14.127H598.879V16.4121H590.5V21.0117H601.193V23.3555ZM632.16 26.5488H629.377V0.240234H632.16V26.5488ZM624.66 4.98633H614.904V17.7305C617.59 17.7207 619.797 17.6621 621.525 17.5547C623.264 17.4473 625.012 17.2324 626.77 16.9102L627.062 19.2246C625.168 19.5664 623.269 19.8008 621.364 19.9277C619.47 20.0449 617.102 20.1035 614.26 20.1035H612.092V2.67188H624.66V4.98633ZM645.49 7.97461C645.49 9.35156 645.773 10.748 646.34 12.1641C646.906 13.5801 647.697 14.8594 648.713 16.002C649.738 17.1445 650.9 18.0234 652.199 18.6387L650.617 20.8066C649.172 20.1035 647.883 19.0635 646.75 17.6865C645.627 16.3096 644.763 14.7471 644.157 12.999C643.552 14.8936 642.658 16.5977 641.477 18.1113C640.305 19.6152 638.977 20.7383 637.492 21.4805L635.852 19.2832C637.15 18.6582 638.322 17.7402 639.367 16.5293C640.422 15.3184 641.247 13.9609 641.843 12.457C642.438 10.9434 642.736 9.44922 642.736 7.97461V5.19141H636.818V2.87695H651.203V5.19141H645.49V7.97461ZM656.799 10.6406H661.018V12.9844H656.799V26.4902H654.016V0.240234H656.799V10.6406ZM684.045 19.3418H681.262V0.269531H684.045V19.3418ZM684.836 25.9336H666.877V17.4082H669.689V23.6777H684.836V25.9336ZM669.807 2.02734C671.115 2.02734 672.297 2.30566 673.352 2.8623C674.416 3.41895 675.251 4.19043 675.856 5.17676C676.472 6.16309 676.779 7.28125 676.779 8.53125C676.779 9.80078 676.472 10.9336 675.856 11.9297C675.251 12.916 674.416 13.6875 673.352 14.2441C672.297 14.791 671.115 15.0645 669.807 15.0645C668.498 15.0645 667.312 14.791 666.247 14.2441C665.183 13.6875 664.343 12.9111 663.728 11.915C663.112 10.9189 662.805 9.79102 662.805 8.53125C662.805 7.28125 663.112 6.16309 663.728 5.17676C664.343 4.19043 665.183 3.41895 666.247 2.8623C667.312 2.30566 668.498 2.02734 669.807 2.02734ZM669.807 4.45898C668.996 4.45898 668.264 4.63477 667.609 4.98633C666.965 5.32812 666.457 5.80664 666.086 6.42188C665.715 7.03711 665.529 7.74023 665.529 8.53125C665.529 9.3418 665.71 10.0596 666.071 10.6846C666.442 11.2998 666.95 11.7783 667.595 12.1201C668.249 12.4619 668.986 12.6328 669.807 12.6328C670.607 12.6328 671.33 12.4619 671.975 12.1201C672.619 11.7783 673.127 11.2949 673.498 10.6699C673.869 10.0449 674.055 9.33203 674.055 8.53125C674.055 7.75 673.869 7.05176 673.498 6.43652C673.127 5.81152 672.614 5.32812 671.96 4.98633C671.315 4.63477 670.598 4.45898 669.807 4.45898Z" fill="#CCCCCC"/>
</svg>
