<svg width="688" height="31" viewBox="0 0 688 31" fill="none" xmlns="http://www.w3.org/2000/svg">
<path d="M15.2598 10.9043H10.1328V14.2148C12.623 14.1074 14.8887 13.9414 16.9297 13.7168L17.1348 15.7676C12.6914 16.373 7.13477 16.6758 0.464844 16.6758L0.0839844 14.4492C2.85742 14.4297 5.28906 14.3906 7.37891 14.332V10.9043H2.42773V1.91016H15.0254V4.16602H5.21094V8.64844H15.2598V10.9043ZM21.7344 19.9277H18.9512V0.240234H21.7344V19.9277ZM22.5547 25.9336H4.41992V18.5215H7.20312V23.6777H22.5547V25.9336ZM53.668 10.6992H57.7402V13.0137H53.668V26.4609H50.8848V0.240234H53.668V10.6992ZM46.8125 2.99414C46.793 6.99805 45.8213 10.5918 43.8975 13.7754C41.9736 16.959 38.9414 19.5762 34.8008 21.627L33.248 19.459C36.5293 17.8184 39.0635 15.8164 40.8506 13.4531C42.6475 11.0898 43.6875 8.375 43.9707 5.30859H34.5664V2.99414H46.8125ZM80.0352 4.19531C80.0352 5.88477 79.9912 7.38379 79.9033 8.69238C79.8252 9.99121 79.625 11.4707 79.3027 13.1309H83.082V15.416H72.4473V26.5195H69.6348V15.416H59.1465V13.1309H76.4902C76.8418 11.4805 77.0615 10.001 77.1494 8.69238C77.2373 7.37402 77.2812 5.875 77.2812 4.19531V4.16602H62.0762V1.88086H80.0352V4.19531ZM109.039 13.2188H85.0742V10.9922H109.039V13.2188ZM106.197 9.08789H88.209V1.00195H105.934V3.25781H90.9922V6.86133H106.197V9.08789ZM105.992 21.6562H90.6992V24H106.725V26.1973H87.9746V19.6055H103.238V17.4375H87.9453V15.2988H105.992V21.6562ZM135.025 23.3555H111.002V21.0117H121.578V16.4121H113.932V8.0625H129.342V4.37109H113.873V2.08594H132.096V10.2891H116.686V14.127H132.711V16.4121H124.332V21.0117H135.025V23.3555ZM168.189 15.123H157.555V26.4902H154.771V15.123H144.254V12.8086H150.816C151.266 11.1094 151.573 9.57129 151.739 8.19434C151.915 6.80762 152.013 5.49414 152.032 4.25391H146.158V1.99805H154.771V3.08203C154.771 4.52734 154.703 6.00684 154.566 7.52051C154.439 9.02441 154.127 10.7871 153.629 12.8086H161.788C162.159 11.1191 162.408 9.59082 162.535 8.22363C162.662 6.84668 162.73 5.52344 162.74 4.25391H156.676V1.99805H165.494V3.375C165.494 4.84961 165.44 6.31445 165.333 7.76953C165.235 9.21484 164.991 10.8945 164.601 12.8086H168.189V15.123ZM183.395 6.42188H189.312V0.240234H192.066V26.5488H189.312V15.8848H183.395V19.9277H171.207V2.75977H183.395V6.42188ZM173.961 17.7012H180.67V4.92773H173.961V17.7012ZM189.312 13.6289V8.70703H183.395V13.6289H189.312ZM205.836 5.71875C205.836 6.85156 206.1 7.94043 206.627 8.98535C207.164 10.0303 207.926 10.958 208.912 11.7686C209.908 12.5693 211.07 13.1797 212.398 13.5996L210.963 15.7676C209.469 15.2695 208.16 14.5322 207.037 13.5557C205.924 12.5693 205.069 11.4121 204.474 10.084C203.878 11.5293 203.009 12.7891 201.866 13.8633C200.733 14.9375 199.391 15.748 197.838 16.2949L196.402 14.0977C197.74 13.6484 198.907 12.9941 199.903 12.1348C200.899 11.2754 201.666 10.2939 202.203 9.19043C202.74 8.07715 203.014 6.91992 203.023 5.71875V4.57617H197.135V2.32031H211.607V4.57617H205.836V5.71875ZM217.877 19.4297H215.094V0.269531H217.877V19.4297ZM218.668 25.9336H200.709V17.6133H203.521V23.6777H218.668V25.9336ZM251.1 26.5488H248.316V0.240234H251.1V26.5488ZM237.066 2.20312C238.365 2.20312 239.527 2.58398 240.553 3.3457C241.578 4.09766 242.379 5.17188 242.955 6.56836C243.541 7.95508 243.834 9.56641 243.834 11.4023C243.834 13.248 243.541 14.8691 242.955 16.2656C242.379 17.6621 241.578 18.7412 240.553 19.5029C239.527 20.2549 238.365 20.6309 237.066 20.6309C235.748 20.6309 234.576 20.2549 233.551 19.5029C232.525 18.7412 231.72 17.667 231.134 16.2803C230.558 14.8838 230.27 13.2578 230.27 11.4023C230.27 9.55664 230.558 7.94043 231.134 6.55371C231.72 5.15723 232.525 4.08301 233.551 3.33105C234.576 2.5791 235.748 2.20312 237.066 2.20312ZM237.066 4.69336C236.256 4.69336 235.538 4.9668 234.913 5.51367C234.298 6.06055 233.819 6.8418 233.478 7.85742C233.136 8.86328 232.965 10.0449 232.965 11.4023C232.965 12.7695 233.136 13.9609 233.478 14.9766C233.819 15.9922 234.298 16.7734 234.913 17.3203C235.538 17.8672 236.256 18.1406 237.066 18.1406C237.867 18.1406 238.575 17.8672 239.19 17.3203C239.806 16.7734 240.284 15.9922 240.626 14.9766C240.968 13.9609 241.139 12.7695 241.139 11.4023C241.139 10.0449 240.968 8.86328 240.626 7.85742C240.284 6.8418 239.806 6.06055 239.19 5.51367C238.575 4.9668 237.867 4.69336 237.066 4.69336ZM286.549 16.2363H262.555V14.0391H286.549V16.2363ZM283.502 26.4902H280.66V20.748H265.279V18.5215H283.502V26.4902ZM283.795 11.8125H265.689V0.914062H283.619V3.11133H268.502V5.25H282.945V7.35938H268.502V9.67383H283.795V11.8125ZM310.396 13.8926H307.643V10.7578H301.9V12.9258H289.801V1.44141H292.584V4.98633H299.146V1.44141H301.9V3.84375H307.643V0.240234H310.396V13.8926ZM310.396 21.5098H296.07V23.9414H311.334V26.168H293.287V19.4297H307.643V17.2324H293.229V15.0645H310.396V21.5098ZM299.146 10.6992V7.125H292.584V10.6992H299.146ZM307.643 8.61914V5.98242H301.9V8.61914H307.643ZM335.094 8.70703H338.902V11.0215H335.094V19.8984H332.311V0.269531H335.094V8.70703ZM330.143 5.57227H314.498V3.31641H320.943V0.240234H323.727V3.31641H330.143V5.57227ZM322.32 6.83203C323.57 6.83203 324.674 7.03711 325.631 7.44727C326.598 7.85742 327.345 8.43848 327.872 9.19043C328.409 9.93262 328.678 10.7969 328.678 11.7832C328.678 12.7695 328.409 13.6338 327.872 14.376C327.345 15.1182 326.598 15.6943 325.631 16.1045C324.674 16.5049 323.57 16.7051 322.32 16.7051C321.061 16.7051 319.947 16.5049 318.98 16.1045C318.014 15.6943 317.262 15.1182 316.725 14.376C316.197 13.6338 315.934 12.7695 315.934 11.7832C315.934 10.7969 316.197 9.93262 316.725 9.19043C317.262 8.43848 318.014 7.85742 318.98 7.44727C319.947 7.03711 321.061 6.83203 322.32 6.83203ZM322.32 8.9707C321.578 8.9707 320.924 9.08789 320.357 9.32227C319.801 9.54688 319.371 9.87402 319.068 10.3037C318.766 10.7236 318.619 11.2168 318.629 11.7832C318.619 12.3398 318.766 12.8281 319.068 13.248C319.371 13.6582 319.801 13.9756 320.357 14.2002C320.924 14.4248 321.578 14.5371 322.32 14.5371C323.062 14.5371 323.712 14.4248 324.269 14.2002C324.835 13.9756 325.274 13.6582 325.587 13.248C325.899 12.8281 326.061 12.3398 326.07 11.7832C326.061 11.2168 325.899 10.7236 325.587 10.3037C325.274 9.87402 324.835 9.54688 324.269 9.32227C323.712 9.08789 323.062 8.9707 322.32 8.9707ZM336.207 25.9336H318.453V18.3457H321.236V23.6777H336.207V25.9336ZM361.373 1.4707C361.354 4.88867 360.377 7.68164 358.443 9.84961C356.51 12.0078 353.502 13.6094 349.42 14.6543L348.395 12.4863C352.389 11.5195 355.191 9.99609 356.803 7.91602L348.805 8.50195L348.365 6.33398L357.916 5.92383C358.189 5.19141 358.36 4.43945 358.429 3.66797H349.684V1.4707H361.373ZM369.605 13.7461H366.822V8.61914H361.461V6.33398H366.822V0.240234H369.605V13.7461ZM369.605 21.4219H355.221V23.9414H370.396V26.168H352.496V19.3418H366.852V17.0273H352.438V14.8594H369.605V21.4219ZM396.031 26.4902H393.277V20.0449H378.219V17.8184H396.031V26.4902ZM384.107 9.73242H377.516V13.2188C379.244 13.1992 380.753 13.1357 382.042 13.0283C383.341 12.9209 384.674 12.7305 386.041 12.457L386.334 14.7129C384.879 14.9863 383.468 15.1768 382.101 15.2842C380.733 15.3916 379.176 15.4453 377.428 15.4453H376.549H374.82V7.68164H381.441V4.42969H374.762V2.23242H384.107V9.73242ZM396.031 16.5879H393.395V0.269531H396.031V16.5879ZM390.787 16.4414H388.121V9.08789H385.104V6.83203H388.121V0.767578H390.787V16.4414ZM408.834 4.98633C408.834 6.24609 409.088 7.46191 409.596 8.63379C410.104 9.80566 410.826 10.8506 411.764 11.7686C412.711 12.6865 413.824 13.3945 415.104 13.8926L413.58 16.0605C412.164 15.4941 410.934 14.6641 409.889 13.5703C408.854 12.4766 408.053 11.2021 407.486 9.74707C406.92 11.29 406.085 12.6475 404.981 13.8193C403.878 14.9814 402.574 15.8652 401.07 16.4707L399.576 14.2441C400.895 13.7559 402.042 13.043 403.019 12.1055C404.005 11.1582 404.757 10.0693 405.274 8.83887C405.802 7.6084 406.07 6.32422 406.08 4.98633V1.73438H408.834V4.98633ZM421.461 19.8105H418.678V11.5488H413.58V9.29297H418.678V6.24609H413.58V3.99023H418.678V0.269531H421.461V19.8105ZM422.047 25.9336H404.322V17.8477H407.135V23.6777H422.047V25.9336ZM449.439 16.1777H425.504V13.9512H449.439V16.1777ZM446.744 25.9336H428.521V18.3164H431.334V23.6777H446.744V25.9336ZM437.457 1.11914C439.342 1.10937 440.987 1.31445 442.394 1.73438C443.81 2.1543 444.903 2.75977 445.675 3.55078C446.446 4.3418 446.832 5.2793 446.832 6.36328C446.832 7.45703 446.446 8.4043 445.675 9.20508C444.913 9.99609 443.824 10.6064 442.408 11.0361C440.992 11.4658 439.342 11.6855 437.457 11.6953C435.562 11.6855 433.907 11.4658 432.491 11.0361C431.085 10.6064 429.996 9.99609 429.225 9.20508C428.463 8.4043 428.082 7.45703 428.082 6.36328C428.082 5.2793 428.463 4.3418 429.225 3.55078C429.996 2.75977 431.085 2.1543 432.491 1.73438C433.907 1.31445 435.562 1.10937 437.457 1.11914ZM437.457 3.3457C436.129 3.3457 434.972 3.46777 433.985 3.71191C433.009 3.95605 432.257 4.30762 431.729 4.7666C431.202 5.21582 430.943 5.74805 430.953 6.36328C430.943 6.99805 431.197 7.54492 431.715 8.00391C432.242 8.46289 432.994 8.81445 433.971 9.05859C434.957 9.29297 436.119 9.41016 437.457 9.41016C438.795 9.41016 439.952 9.29297 440.929 9.05859C441.905 8.81445 442.652 8.46289 443.17 8.00391C443.697 7.54492 443.961 6.99805 443.961 6.36328C443.961 5.74805 443.697 5.21582 443.17 4.7666C442.643 4.30762 441.891 3.95605 440.914 3.71191C439.938 3.46777 438.785 3.3457 437.457 3.3457ZM453.805 30.0645H451.314L452.867 21.9785H456.148L453.805 30.0645ZM489.02 5.2793H467.662V3.05273H477.008V0.123047H479.762V3.05273H489.02V5.2793ZM490.455 19.2832H484.391V26.5195H481.578V19.2832H475.25V26.5195H472.467V19.2832H466.432V17.0273H490.455V19.2832ZM478.385 6.62695C480.201 6.62695 481.764 6.79785 483.072 7.13965C484.381 7.47168 485.382 7.96973 486.075 8.63379C486.769 9.28809 487.115 10.084 487.115 11.0215C487.115 11.9492 486.769 12.7451 486.075 13.4092C485.382 14.0635 484.381 14.5615 483.072 14.9033C481.764 15.2451 480.201 15.416 478.385 15.416C476.559 15.416 474.991 15.2451 473.683 14.9033C472.374 14.5615 471.373 14.0635 470.68 13.4092C469.986 12.7451 469.645 11.9492 469.654 11.0215C469.645 10.084 469.986 9.28809 470.68 8.63379C471.373 7.96973 472.374 7.47168 473.683 7.13965C474.991 6.79785 476.559 6.62695 478.385 6.62695ZM478.385 8.73633C476.48 8.75586 475.025 8.95605 474.02 9.33691C473.023 9.71777 472.525 10.2793 472.525 11.0215C472.525 11.7539 473.028 12.3154 474.034 12.7061C475.04 13.0869 476.49 13.2773 478.385 13.2773C480.26 13.2773 481.7 13.0869 482.706 12.7061C483.722 12.3154 484.234 11.7539 484.244 11.0215C484.234 10.2793 483.727 9.71777 482.721 9.33691C481.725 8.95605 480.279 8.75586 478.385 8.73633ZM501.91 4.01953C501.9 5.23047 502.154 6.3877 502.672 7.49121C503.199 8.58496 503.956 9.55176 504.942 10.3916C505.929 11.2314 507.086 11.8711 508.414 12.3105L507.008 14.5078C505.504 13.9805 504.19 13.2041 503.067 12.1787C501.954 11.1436 501.1 9.9375 500.504 8.56055C499.908 10.0547 499.044 11.3584 497.911 12.4717C496.788 13.5752 495.455 14.4004 493.912 14.9473L492.506 12.7793C493.844 12.3008 495.006 11.6123 495.992 10.7139C496.988 9.81543 497.75 8.79004 498.277 7.6377C498.805 6.47559 499.068 5.26953 499.068 4.01953V1.5H501.91V4.01953ZM514.127 26.4902H511.344V19.5176H496.344V17.2617H514.127V26.4902ZM514.127 16.002H511.344V0.240234H514.127V16.002ZM530.24 0.679688C532.213 0.679688 533.897 0.855469 535.294 1.20703C536.7 1.54883 537.77 2.05664 538.502 2.73047C539.244 3.4043 539.615 4.22461 539.615 5.19141C539.615 6.1582 539.244 6.9834 538.502 7.66699C537.77 8.34082 536.7 8.85352 535.294 9.20508C533.897 9.55664 532.213 9.73242 530.24 9.73242C528.268 9.73242 526.578 9.55664 525.172 9.20508C523.775 8.85352 522.706 8.34082 521.964 7.66699C521.231 6.9834 520.865 6.1582 520.865 5.19141C520.865 4.22461 521.231 3.4043 521.964 2.73047C522.706 2.05664 523.775 1.54883 525.172 1.20703C526.578 0.855469 528.268 0.679688 530.24 0.679688ZM530.24 2.73047C528.15 2.73047 526.544 2.94531 525.421 3.375C524.298 3.80469 523.746 4.41016 523.766 5.19141C523.756 5.99219 524.303 6.60254 525.406 7.02246C526.52 7.44238 528.131 7.65234 530.24 7.65234C532.34 7.65234 533.946 7.44238 535.06 7.02246C536.183 6.60254 536.744 5.99219 536.744 5.19141C536.744 4.41016 536.178 3.80469 535.045 3.375C533.922 2.94531 532.32 2.73047 530.24 2.73047ZM542.223 13.5703H518.287V11.3438H542.223V13.5703ZM539.205 21.7441H523.912V24.0879H539.938V26.2266H521.188V19.7227H536.451V17.6719H521.158V15.5918H539.205V21.7441ZM560.152 1.44141C561.461 1.44141 562.633 1.6709 563.668 2.12988C564.703 2.58887 565.514 3.2334 566.1 4.06348C566.686 4.88379 566.979 5.82617 566.979 6.89062C566.979 7.94531 566.686 8.8877 566.1 9.71777C565.514 10.5479 564.703 11.1924 563.668 11.6514C562.633 12.1006 561.461 12.3203 560.152 12.3105C558.844 12.3203 557.677 12.1006 556.651 11.6514C555.626 11.1924 554.825 10.5527 554.249 9.73242C553.673 8.90234 553.385 7.95508 553.385 6.89062C553.385 5.82617 553.673 4.87891 554.249 4.04883C554.825 3.21875 555.626 2.5791 556.651 2.12988C557.677 1.6709 558.844 1.44141 560.152 1.44141ZM560.152 3.69727C559.361 3.69727 558.653 3.8291 558.028 4.09277C557.413 4.35645 556.93 4.73242 556.578 5.2207C556.236 5.69922 556.07 6.25586 556.08 6.89062C556.07 7.51562 556.236 8.06738 556.578 8.5459C556.93 9.02441 557.418 9.39551 558.043 9.65918C558.668 9.91309 559.371 10.0352 560.152 10.0254C560.953 10.0352 561.671 9.91309 562.306 9.65918C562.94 9.39551 563.434 9.02441 563.785 8.5459C564.137 8.06738 564.312 7.51562 564.312 6.89062C564.312 6.25586 564.137 5.69922 563.785 5.2207C563.434 4.73242 562.94 4.35645 562.306 4.09277C561.681 3.8291 560.963 3.69727 560.152 3.69727ZM573.365 26.4902H570.611V0.269531H573.365V26.4902ZM551.51 14.3613C554.615 14.3613 557.628 14.2979 560.548 14.1709C563.478 14.0342 566.227 13.7754 568.795 13.3945L569 15.4746C566.852 15.8848 564.42 16.1875 561.705 16.3828V25.6699H558.922V16.5293C557.262 16.6074 554.918 16.6562 551.891 16.6758L551.51 14.3613ZM598.092 8.70703H601.9V11.0215H598.092V19.8984H595.309V0.269531H598.092V8.70703ZM593.141 5.57227H577.496V3.31641H583.941V0.240234H586.725V3.31641H593.141V5.57227ZM585.318 6.83203C586.568 6.83203 587.672 7.03711 588.629 7.44727C589.596 7.85742 590.343 8.43848 590.87 9.19043C591.407 9.93262 591.676 10.7969 591.676 11.7832C591.676 12.7695 591.407 13.6338 590.87 14.376C590.343 15.1182 589.596 15.6943 588.629 16.1045C587.672 16.5049 586.568 16.7051 585.318 16.7051C584.059 16.7051 582.945 16.5049 581.979 16.1045C581.012 15.6943 580.26 15.1182 579.723 14.376C579.195 13.6338 578.932 12.7695 578.932 11.7832C578.932 10.7969 579.195 9.93262 579.723 9.19043C580.26 8.43848 581.012 7.85742 581.979 7.44727C582.945 7.03711 584.059 6.83203 585.318 6.83203ZM585.318 8.9707C584.576 8.9707 583.922 9.08789 583.355 9.32227C582.799 9.54688 582.369 9.87402 582.066 10.3037C581.764 10.7236 581.617 11.2168 581.627 11.7832C581.617 12.3398 581.764 12.8281 582.066 13.248C582.369 13.6582 582.799 13.9756 583.355 14.2002C583.922 14.4248 584.576 14.5371 585.318 14.5371C586.061 14.5371 586.71 14.4248 587.267 14.2002C587.833 13.9756 588.272 13.6582 588.585 13.248C588.897 12.8281 589.059 12.3398 589.068 11.7832C589.059 11.2168 588.897 10.7236 588.585 10.3037C588.272 9.87402 587.833 9.54688 587.267 9.32227C586.71 9.08789 586.061 8.9707 585.318 8.9707ZM599.205 25.9336H581.451V18.3457H584.234V23.6777H599.205V25.9336ZM617.75 2.20312C619.049 2.20312 620.206 2.5791 621.222 3.33105C622.247 4.08301 623.043 5.15723 623.609 6.55371C624.186 7.94043 624.479 9.55664 624.488 11.4023C624.479 13.2578 624.186 14.8838 623.609 16.2803C623.043 17.667 622.247 18.7412 621.222 19.5029C620.206 20.2549 619.049 20.6309 617.75 20.6309C616.441 20.6309 615.279 20.2549 614.264 19.5029C613.248 18.7412 612.452 17.667 611.876 16.2803C611.31 14.8838 611.031 13.2578 611.041 11.4023C611.031 9.55664 611.31 7.94043 611.876 6.55371C612.452 5.16699 613.248 4.09766 614.264 3.3457C615.279 2.58398 616.441 2.20312 617.75 2.20312ZM617.75 4.69336C616.949 4.69336 616.241 4.9668 615.626 5.51367C615.021 6.06055 614.547 6.8418 614.205 7.85742C613.873 8.86328 613.707 10.0449 613.707 11.4023C613.707 12.7695 613.873 13.9609 614.205 14.9766C614.547 15.9922 615.021 16.7734 615.626 17.3203C616.241 17.8672 616.949 18.1406 617.75 18.1406C618.561 18.1406 619.273 17.8672 619.889 17.3203C620.504 16.7734 620.978 15.9922 621.31 14.9766C621.651 13.9609 621.822 12.7695 621.822 11.4023C621.822 10.0449 621.651 8.86328 621.31 7.85742C620.978 6.8418 620.504 6.06055 619.889 5.51367C619.273 4.9668 618.561 4.69336 617.75 4.69336ZM631.168 10.5234H635.387V12.8672H631.168V26.4902H628.385V0.240234H631.168V10.5234ZM657.887 9.61523H639.811V0.796875H642.623V7.33008H657.887V9.61523ZM660.611 14.4785H636.646V12.3105H660.611V14.4785ZM657.682 26.6367H654.898V19.9277H639.283V17.6719H657.682V26.6367ZM683.023 10.875H687.242V13.1895H683.023V26.4902H680.27V0.240234H683.023V10.875ZM677.984 6.62695H662.428V4.3418H668.902V0.591797H671.686V4.3418H677.984V6.62695ZM670.309 8.56055C671.549 8.56055 672.662 8.81934 673.648 9.33691C674.635 9.85449 675.411 10.5771 675.978 11.5049C676.544 12.4326 676.832 13.4824 676.842 14.6543C676.832 15.8359 676.544 16.8906 675.978 17.8184C675.411 18.7461 674.635 19.4688 673.648 19.9863C672.662 20.5039 671.549 20.7676 670.309 20.7773C669.059 20.7676 667.936 20.5039 666.939 19.9863C665.953 19.4688 665.177 18.7461 664.61 17.8184C664.054 16.8906 663.775 15.8359 663.775 14.6543C663.775 13.4824 664.054 12.4326 664.61 11.5049C665.177 10.5771 665.953 9.85449 666.939 9.33691C667.936 8.81934 669.059 8.56055 670.309 8.56055ZM670.309 10.8457C669.576 10.8457 668.912 11.0068 668.316 11.3291C667.721 11.6514 667.257 12.1006 666.925 12.6768C666.593 13.2529 666.432 13.9121 666.441 14.6543C666.432 15.4062 666.593 16.0703 666.925 16.6465C667.257 17.2227 667.716 17.667 668.302 17.9795C668.897 18.292 669.566 18.4434 670.309 18.4336C671.041 18.4434 671.7 18.292 672.286 17.9795C672.882 17.667 673.346 17.2227 673.678 16.6465C674.01 16.0703 674.176 15.4062 674.176 14.6543C674.176 13.9121 674.01 13.2529 673.678 12.6768C673.346 12.1006 672.882 11.6514 672.286 11.3291C671.7 11.0068 671.041 10.8457 670.309 10.8457Z" fill="#CCCCCC"/>
</svg>
