<svg width="679" height="27" viewBox="0 0 679 27" fill="none" xmlns="http://www.w3.org/2000/svg">
<path d="M22.207 5.33789C22.207 6.8125 22.1875 8.09668 22.1484 9.19043C22.1191 10.2744 22.0312 11.5293 21.8848 12.9551C21.748 14.3809 21.5234 15.9238 21.2109 17.584L18.3984 17.291C18.7109 15.7188 18.9404 14.2393 19.0869 12.8525C19.2432 11.4561 19.3359 10.2158 19.3652 9.13184C19.4043 8.04785 19.4238 6.7832 19.4238 5.33789V5.01562H3.48633V2.75977H22.207V5.33789ZM24.9023 22.9453H0.966797V20.6309H10.0781V11.373H12.832V20.6309H24.9023V22.9453ZM56.1035 19.7227H53.3203V12.4863H49.2188V10.1426H53.3203V7.38867H49.2188V5.10352H53.3203V0.240234H56.1035V19.7227ZM48.9258 4.54688H46.4062V13.3359C47.793 13.2285 48.8672 13.1309 49.6289 13.043L49.7461 15.0938C47.5195 15.4453 45.1611 15.6797 42.6709 15.7969C40.1904 15.9141 37.5 15.9824 34.5996 16.002L34.248 13.6582L37.4414 13.6436V4.54688H34.9805V2.29102H48.9258V4.54688ZM56.7773 25.9336H38.9941V18.1406H41.8066V23.6777H56.7773V25.9336ZM40.1367 13.5996C41.7383 13.5605 42.9395 13.5215 43.7402 13.4824V4.54688H40.1367V13.5996ZM80.7715 8.0625H84.5801V10.4062H80.7715V19.5176H77.9883V0.210938H80.7715V8.0625ZM81.8848 25.9336H64.1309V17.4961H66.9141V23.6777H81.8848V25.9336ZM67.5293 2.02734C68.8379 2.02734 70.0195 2.30566 71.0742 2.8623C72.1387 3.41895 72.9785 4.19531 73.5938 5.19141C74.209 6.17773 74.5215 7.30078 74.5312 8.56055C74.5215 9.81055 74.209 10.9336 73.5938 11.9297C72.9785 12.916 72.1387 13.6924 71.0742 14.2588C70.0195 14.8154 68.8379 15.0938 67.5293 15.0938C66.2207 15.0938 65.0342 14.8154 63.9697 14.2588C62.9053 13.6924 62.0654 12.916 61.4502 11.9297C60.8447 10.9336 60.5469 9.81055 60.5566 8.56055C60.5469 7.30078 60.8447 6.17773 61.4502 5.19141C62.0654 4.19531 62.9053 3.41895 63.9697 2.8623C65.0342 2.30566 66.2207 2.02734 67.5293 2.02734ZM67.5293 4.45898C66.7285 4.45898 66.001 4.63477 65.3467 4.98633C64.7021 5.32812 64.1943 5.81152 63.8232 6.43652C63.4521 7.06152 63.2715 7.76953 63.2812 8.56055C63.2715 9.35156 63.4521 10.0596 63.8232 10.6846C64.1943 11.3096 64.7021 11.7979 65.3467 12.1494C66.001 12.4912 66.7285 12.6621 67.5293 12.6621C68.3301 12.6621 69.0576 12.4912 69.7119 12.1494C70.3662 11.7979 70.8789 11.3096 71.25 10.6846C71.6211 10.0596 71.8066 9.35156 71.8066 8.56055C71.8066 7.76953 71.6211 7.06152 71.25 6.43652C70.8789 5.81152 70.3662 5.32812 69.7119 4.98633C69.0576 4.63477 68.3301 4.45898 67.5293 4.45898ZM106.699 8.70703H110.508V11.0215H106.699V19.8984H103.916V0.269531H106.699V8.70703ZM101.748 5.57227H86.1035V3.31641H92.5488V0.240234H95.332V3.31641H101.748V5.57227ZM93.9258 6.83203C95.1758 6.83203 96.2793 7.03711 97.2363 7.44727C98.2031 7.85742 98.9502 8.43848 99.4775 9.19043C100.015 9.93262 100.283 10.7969 100.283 11.7832C100.283 12.7695 100.015 13.6338 99.4775 14.376C98.9502 15.1182 98.2031 15.6943 97.2363 16.1045C96.2793 16.5049 95.1758 16.7051 93.9258 16.7051C92.666 16.7051 91.5527 16.5049 90.5859 16.1045C89.6191 15.6943 88.8672 15.1182 88.3301 14.376C87.8027 13.6338 87.5391 12.7695 87.5391 11.7832C87.5391 10.7969 87.8027 9.93262 88.3301 9.19043C88.8672 8.43848 89.6191 7.85742 90.5859 7.44727C91.5527 7.03711 92.666 6.83203 93.9258 6.83203ZM93.9258 8.9707C93.1836 8.9707 92.5293 9.08789 91.9629 9.32227C91.4062 9.54688 90.9766 9.87402 90.6738 10.3037C90.3711 10.7236 90.2246 11.2168 90.2344 11.7832C90.2246 12.3398 90.3711 12.8281 90.6738 13.248C90.9766 13.6582 91.4062 13.9756 91.9629 14.2002C92.5293 14.4248 93.1836 14.5371 93.9258 14.5371C94.668 14.5371 95.3174 14.4248 95.874 14.2002C96.4404 13.9756 96.8799 13.6582 97.1924 13.248C97.5049 12.8281 97.666 12.3398 97.6758 11.7832C97.666 11.2168 97.5049 10.7236 97.1924 10.3037C96.8799 9.87402 96.4404 9.54688 95.874 9.32227C95.3174 9.08789 94.668 8.9707 93.9258 8.9707ZM107.812 25.9336H90.0586V18.3457H92.8418V23.6777H107.812V25.9336ZM131.162 16.7344C133.057 16.7344 134.697 16.9297 136.084 17.3203C137.48 17.7012 138.555 18.2578 139.307 18.9902C140.059 19.7129 140.439 20.582 140.449 21.5977C140.439 22.6035 140.054 23.4727 139.292 24.2051C138.54 24.9375 137.466 25.4941 136.069 25.875C134.683 26.2559 133.047 26.4414 131.162 26.4316C129.297 26.4414 127.666 26.251 126.27 25.8604C124.883 25.4795 123.813 24.9229 123.062 24.1904C122.31 23.4678 121.934 22.6035 121.934 21.5977C121.934 20.582 122.31 19.7129 123.062 18.9902C123.813 18.2578 124.883 17.7012 126.27 17.3203C127.656 16.9297 129.287 16.7344 131.162 16.7344ZM131.162 18.8438C129.844 18.8438 128.696 18.9561 127.72 19.1807C126.743 19.3955 125.996 19.7129 125.479 20.1328C124.961 20.543 124.707 21.0312 124.717 21.5977C124.707 22.1543 124.961 22.6377 125.479 23.0479C125.996 23.4482 126.738 23.7559 127.705 23.9707C128.682 24.1855 129.834 24.293 131.162 24.293C132.49 24.293 133.643 24.1855 134.619 23.9707C135.605 23.7559 136.362 23.4482 136.89 23.0479C137.417 22.6377 137.686 22.1543 137.695 21.5977C137.686 21.0312 137.417 20.543 136.89 20.1328C136.362 19.7129 135.605 19.3955 134.619 19.1807C133.643 18.9561 132.49 18.8438 131.162 18.8438ZM140.244 3.72656C140.244 5.14258 140.2 6.3584 140.112 7.37402C140.034 8.38965 139.834 9.49805 139.512 10.6992L136.787 10.4062C137.1 9.21484 137.295 8.14551 137.373 7.19824C137.451 6.24121 137.49 5.09375 137.49 3.75586H122.139V1.5293H140.244V3.72656ZM143.232 14.5664H119.355V12.3105H128.936V7.38867H131.66V12.3105H143.232V14.5664ZM165.879 8.00391H169.688V10.3184H165.879V19.3125H163.066V0.240234H165.879V8.00391ZM158.76 2.23242C158.76 4.49805 158.267 6.56348 157.28 8.42871C156.294 10.2939 154.873 11.9053 153.018 13.2627C151.172 14.6104 148.965 15.6699 146.396 16.4414L145.225 14.2148C147.266 13.5996 149.038 12.8135 150.542 11.8564C152.056 10.8994 153.252 9.80078 154.131 8.56055C155.02 7.32031 155.552 5.98242 155.728 4.54688H146.338V2.23242H158.76ZM166.963 25.9336H149.209V17.3496H152.021V23.6777H166.963V25.9336ZM183.135 0.679688C185.107 0.679688 186.792 0.855469 188.188 1.20703C189.595 1.54883 190.664 2.05664 191.396 2.73047C192.139 3.4043 192.51 4.22461 192.51 5.19141C192.51 6.1582 192.139 6.9834 191.396 7.66699C190.664 8.34082 189.595 8.85352 188.188 9.20508C186.792 9.55664 185.107 9.73242 183.135 9.73242C181.162 9.73242 179.473 9.55664 178.066 9.20508C176.67 8.85352 175.601 8.34082 174.858 7.66699C174.126 6.9834 173.76 6.1582 173.76 5.19141C173.76 4.22461 174.126 3.4043 174.858 2.73047C175.601 2.05664 176.67 1.54883 178.066 1.20703C179.473 0.855469 181.162 0.679688 183.135 0.679688ZM183.135 2.73047C181.045 2.73047 179.438 2.94531 178.315 3.375C177.192 3.80469 176.641 4.41016 176.66 5.19141C176.65 5.99219 177.197 6.60254 178.301 7.02246C179.414 7.44238 181.025 7.65234 183.135 7.65234C185.234 7.65234 186.841 7.44238 187.954 7.02246C189.077 6.60254 189.639 5.99219 189.639 5.19141C189.639 4.41016 189.072 3.80469 187.939 3.375C186.816 2.94531 185.215 2.73047 183.135 2.73047ZM195.117 13.5703H171.182V11.3438H195.117V13.5703ZM192.1 21.7441H176.807V24.0879H192.832V26.2266H174.082V19.7227H189.346V17.6719H174.053V15.5918H192.1V21.7441ZM217.734 14.8008H205.459V2.55469H217.734V14.8008ZM208.184 12.6035H215.01V4.81055H208.184V12.6035ZM225.059 8.0625H228.867V10.4062H225.059V19.459H222.275V0.210938H225.059V8.0625ZM226.172 25.9336H208.418V17.6133H211.201V23.6777H226.172V25.9336ZM254.326 13.2188H230.361V10.9922H254.326V13.2188ZM251.484 9.08789H233.496V1.00195H251.221V3.25781H236.279V6.86133H251.484V9.08789ZM251.279 21.6562H235.986V24H252.012V26.1973H233.262V19.6055H248.525V17.4375H233.232V15.2988H251.279V21.6562ZM278.115 26.4902H275.303V0.240234H278.115V26.4902ZM270.293 3.05273C270.293 7.11523 269.321 10.7285 267.378 13.8926C265.444 17.0469 262.324 19.6543 258.018 21.7148L256.553 19.459C260 17.8184 262.612 15.8213 264.39 13.4678C266.177 11.1143 267.207 8.38477 267.48 5.2793H257.812V3.05273H270.293ZM298.154 1.44141C299.463 1.44141 300.635 1.6709 301.67 2.12988C302.705 2.58887 303.516 3.2334 304.102 4.06348C304.688 4.88379 304.98 5.82617 304.98 6.89062C304.98 7.94531 304.688 8.8877 304.102 9.71777C303.516 10.5479 302.705 11.1924 301.67 11.6514C300.635 12.1006 299.463 12.3203 298.154 12.3105C296.846 12.3203 295.679 12.1006 294.653 11.6514C293.628 11.1924 292.827 10.5527 292.251 9.73242C291.675 8.90234 291.387 7.95508 291.387 6.89062C291.387 5.82617 291.675 4.87891 292.251 4.04883C292.827 3.21875 293.628 2.5791 294.653 2.12988C295.679 1.6709 296.846 1.44141 298.154 1.44141ZM298.154 3.69727C297.363 3.69727 296.655 3.8291 296.03 4.09277C295.415 4.35645 294.932 4.73242 294.58 5.2207C294.238 5.69922 294.072 6.25586 294.082 6.89062C294.072 7.51562 294.238 8.06738 294.58 8.5459C294.932 9.02441 295.42 9.39551 296.045 9.65918C296.67 9.91309 297.373 10.0352 298.154 10.0254C298.955 10.0352 299.673 9.91309 300.308 9.65918C300.942 9.39551 301.436 9.02441 301.787 8.5459C302.139 8.06738 302.314 7.51562 302.314 6.89062C302.314 6.25586 302.139 5.69922 301.787 5.2207C301.436 4.73242 300.942 4.35645 300.308 4.09277C299.683 3.8291 298.965 3.69727 298.154 3.69727ZM311.367 26.4902H308.613V0.269531H311.367V26.4902ZM289.512 14.3613C292.617 14.3613 295.63 14.2979 298.55 14.1709C301.479 14.0342 304.229 13.7754 306.797 13.3945L307.002 15.4746C304.854 15.8848 302.422 16.1875 299.707 16.3828V25.6699H296.924V16.5293C295.264 16.6074 292.92 16.6562 289.893 16.6758L289.512 14.3613ZM328.447 6.83203H315.41V4.57617H320.566V1.00195H323.32V4.57617H328.447V6.83203ZM321.943 8.41406C323.047 8.41406 324.028 8.67285 324.888 9.19043C325.747 9.69824 326.421 10.4111 326.909 11.3291C327.397 12.2373 327.646 13.2773 327.656 14.4492C327.646 15.6309 327.397 16.6855 326.909 17.6133C326.421 18.5312 325.747 19.249 324.888 19.7666C324.028 20.2842 323.047 20.543 321.943 20.543C320.859 20.543 319.883 20.2842 319.014 19.7666C318.145 19.249 317.466 18.5264 316.978 17.5986C316.489 16.6709 316.25 15.6211 316.26 14.4492C316.25 13.2871 316.489 12.2471 316.978 11.3291C317.466 10.4111 318.145 9.69824 319.014 9.19043C319.883 8.67285 320.859 8.41406 321.943 8.41406ZM321.943 10.7285C321.318 10.7285 320.762 10.8896 320.273 11.2119C319.785 11.5244 319.404 11.9639 319.131 12.5303C318.857 13.0967 318.721 13.7363 318.721 14.4492C318.721 15.1816 318.857 15.8311 319.131 16.3975C319.404 16.9541 319.785 17.3887 320.273 17.7012C320.762 18.0137 321.318 18.1699 321.943 18.1699C322.568 18.1699 323.125 18.0137 323.613 17.7012C324.111 17.3887 324.497 16.9541 324.771 16.3975C325.054 15.8311 325.195 15.1816 325.195 14.4492C325.195 13.7363 325.054 13.0967 324.771 12.5303C324.497 11.9639 324.111 11.5244 323.613 11.2119C323.115 10.8896 322.559 10.7285 321.943 10.7285ZM337.939 26.4902H335.303V13.4531H332.285V25.2598H329.648V0.826172H332.285V11.168H335.303V0.240234H337.939V26.4902ZM350.859 6.91992C350.859 8.51172 351.138 10.0693 351.694 11.5928C352.261 13.1162 353.052 14.4688 354.067 15.6504C355.083 16.832 356.25 17.7207 357.568 18.3164L355.869 20.543C354.395 19.8105 353.105 18.7412 352.002 17.335C350.908 15.9287 350.068 14.3125 349.482 12.4863C348.896 14.4102 348.042 16.124 346.919 17.6279C345.796 19.1221 344.492 20.2598 343.008 21.041L341.25 18.7852C342.578 18.1504 343.755 17.2129 344.78 15.9727C345.815 14.7227 346.616 13.3066 347.183 11.7246C347.759 10.1328 348.047 8.53125 348.047 6.91992V2.4375H350.859V6.91992ZM363.281 26.5488H360.527V11.2266H354.668V8.9707H360.527V0.240234H363.281V26.5488ZM396.475 26.4902H393.662V0.240234H396.475V26.4902ZM388.652 3.05273C388.652 7.11523 387.681 10.7285 385.737 13.8926C383.804 17.0469 380.684 19.6543 376.377 21.7148L374.912 19.459C378.359 17.8184 380.972 15.8213 382.749 13.4678C384.536 11.1143 385.566 8.38477 385.84 5.2793H376.172V3.05273H388.652ZM422.373 3.72656H414.375C414.424 4.67383 414.839 5.57227 415.62 6.42188C416.411 7.27148 417.466 7.98926 418.784 8.5752C420.112 9.16113 421.582 9.54688 423.193 9.73242L422.139 11.9883C420.635 11.7734 419.243 11.4072 417.964 10.8896C416.685 10.3623 415.576 9.70801 414.639 8.92676C413.701 8.14551 412.998 7.2666 412.529 6.29004C412.061 7.2666 411.357 8.14551 410.42 8.92676C409.492 9.70801 408.389 10.3623 407.109 10.8896C405.83 11.4072 404.443 11.7734 402.949 11.9883L401.895 9.73242C403.506 9.54688 404.971 9.16113 406.289 8.5752C407.617 7.98926 408.667 7.27148 409.438 6.42188C410.22 5.57227 410.635 4.67383 410.684 3.72656H402.773V1.4707H422.373V3.72656ZM421.816 25.9336H403.594V18.4629H406.406V23.6777H421.816V25.9336ZM424.57 16.5H400.576V14.2441H411.152V10.084H413.906V14.2441H424.57V16.5ZM455.566 26.5488H452.783V0.240234H455.566V26.5488ZM448.066 4.98633H438.311V17.7305C440.996 17.7207 443.203 17.6621 444.932 17.5547C446.67 17.4473 448.418 17.2324 450.176 16.9102L450.469 19.2246C448.574 19.5664 446.675 19.8008 444.771 19.9277C442.876 20.0449 440.508 20.1035 437.666 20.1035H435.498V2.67188H448.066V4.98633ZM468.896 7.97461C468.896 9.35156 469.18 10.748 469.746 12.1641C470.312 13.5801 471.104 14.8594 472.119 16.002C473.145 17.1445 474.307 18.0234 475.605 18.6387L474.023 20.8066C472.578 20.1035 471.289 19.0635 470.156 17.6865C469.033 16.3096 468.169 14.7471 467.563 12.999C466.958 14.8936 466.064 16.5977 464.883 18.1113C463.711 19.6152 462.383 20.7383 460.898 21.4805L459.258 19.2832C460.557 18.6582 461.729 17.7402 462.773 16.5293C463.828 15.3184 464.653 13.9609 465.249 12.457C465.845 10.9434 466.143 9.44922 466.143 7.97461V5.19141H460.225V2.87695H474.609V5.19141H468.896V7.97461ZM480.205 10.6406H484.424V12.9844H480.205V26.4902H477.422V0.240234H480.205V10.6406ZM507.451 19.3418H504.668V0.269531H507.451V19.3418ZM508.242 25.9336H490.283V17.4082H493.096V23.6777H508.242V25.9336ZM493.213 2.02734C494.521 2.02734 495.703 2.30566 496.758 2.8623C497.822 3.41895 498.657 4.19043 499.263 5.17676C499.878 6.16309 500.186 7.28125 500.186 8.53125C500.186 9.80078 499.878 10.9336 499.263 11.9297C498.657 12.916 497.822 13.6875 496.758 14.2441C495.703 14.791 494.521 15.0645 493.213 15.0645C491.904 15.0645 490.718 14.791 489.653 14.2441C488.589 13.6875 487.749 12.9111 487.134 11.915C486.519 10.9189 486.211 9.79102 486.211 8.53125C486.211 7.28125 486.519 6.16309 487.134 5.17676C487.749 4.19043 488.589 3.41895 489.653 2.8623C490.718 2.30566 491.904 2.02734 493.213 2.02734ZM493.213 4.45898C492.402 4.45898 491.67 4.63477 491.016 4.98633C490.371 5.32812 489.863 5.80664 489.492 6.42188C489.121 7.03711 488.936 7.74023 488.936 8.53125C488.936 9.3418 489.116 10.0596 489.478 10.6846C489.849 11.2998 490.356 11.7783 491.001 12.1201C491.655 12.4619 492.393 12.6328 493.213 12.6328C494.014 12.6328 494.736 12.4619 495.381 12.1201C496.025 11.7783 496.533 11.2949 496.904 10.6699C497.275 10.0449 497.461 9.33203 497.461 8.53125C497.461 7.75 497.275 7.05176 496.904 6.43652C496.533 5.81152 496.021 5.32812 495.366 4.98633C494.722 4.63477 494.004 4.45898 493.213 4.45898ZM520.166 2.11523C521.533 2.10547 522.759 2.36426 523.843 2.8916C524.927 3.41895 525.771 4.16113 526.377 5.11816C526.992 6.06543 527.305 7.14453 527.314 8.35547C527.305 9.56641 526.992 10.6504 526.377 11.6074C525.771 12.5547 524.927 13.2969 523.843 13.834C522.759 14.3613 521.533 14.625 520.166 14.625C518.799 14.625 517.568 14.3613 516.475 13.834C515.391 13.2969 514.541 12.5547 513.926 11.6074C513.311 10.6504 513.008 9.56641 513.018 8.35547C513.008 7.14453 513.311 6.06543 513.926 5.11816C514.541 4.16113 515.391 3.41895 516.475 2.8916C517.568 2.36426 518.799 2.10547 520.166 2.11523ZM520.166 4.51758C519.316 4.51758 518.555 4.67871 517.881 5.00098C517.217 5.31348 516.694 5.7627 516.313 6.34863C515.942 6.9248 515.762 7.59375 515.771 8.35547C515.762 9.11719 515.942 9.79102 516.313 10.377C516.694 10.9531 517.217 11.4023 517.881 11.7246C518.555 12.0371 519.316 12.1934 520.166 12.1934C521.016 12.1934 521.772 12.0371 522.437 11.7246C523.11 11.4023 523.638 10.9531 524.019 10.377C524.399 9.79102 524.59 9.11719 524.59 8.35547C524.59 7.59375 524.399 6.9248 524.019 6.34863C523.638 5.7627 523.11 5.31348 522.437 5.00098C521.772 4.67871 521.016 4.51758 520.166 4.51758ZM533.32 26.5488H530.537V0.240234H533.32V26.5488ZM511.758 18.5801C515 18.5801 518.027 18.5264 520.84 18.4189C523.662 18.3018 526.348 18.0625 528.896 17.7012L529.102 19.7227C526.484 20.2305 523.823 20.5527 521.118 20.6895C518.423 20.8262 515.42 20.8945 512.109 20.8945L511.758 18.5801ZM565.312 10.6992H569.385V13.0137H565.312V26.4609H562.529V0.240234H565.312V10.6992ZM558.457 2.99414C558.438 6.99805 557.466 10.5918 555.542 13.7754C553.618 16.959 550.586 19.5762 546.445 21.627L544.893 19.459C548.174 17.8184 550.708 15.8164 552.495 13.4531C554.292 11.0898 555.332 8.375 555.615 5.30859H546.211V2.99414H558.457ZM591.68 4.19531C591.68 5.88477 591.636 7.38379 591.548 8.69238C591.47 9.99121 591.27 11.4707 590.947 13.1309H594.727V15.416H584.092V26.5195H581.279V15.416H570.791V13.1309H588.135C588.486 11.4805 588.706 10.001 588.794 8.69238C588.882 7.37402 588.926 5.875 588.926 4.19531V4.16602H573.721V1.88086H591.68V4.19531ZM620.684 13.2188H596.719V10.9922H620.684V13.2188ZM617.842 9.08789H599.854V1.00195H617.578V3.25781H602.637V6.86133H617.842V9.08789ZM617.637 21.6562H602.344V24H618.369V26.1973H599.619V19.6055H614.883V17.4375H599.59V15.2988H617.637V21.6562ZM634.6 0.679688C636.572 0.679688 638.257 0.855469 639.653 1.20703C641.06 1.54883 642.129 2.05664 642.861 2.73047C643.604 3.4043 643.975 4.22461 643.975 5.19141C643.975 6.1582 643.604 6.9834 642.861 7.66699C642.129 8.34082 641.06 8.85352 639.653 9.20508C638.257 9.55664 636.572 9.73242 634.6 9.73242C632.627 9.73242 630.938 9.55664 629.531 9.20508C628.135 8.85352 627.065 8.34082 626.323 7.66699C625.591 6.9834 625.225 6.1582 625.225 5.19141C625.225 4.22461 625.591 3.4043 626.323 2.73047C627.065 2.05664 628.135 1.54883 629.531 1.20703C630.938 0.855469 632.627 0.679688 634.6 0.679688ZM634.6 2.73047C632.51 2.73047 630.903 2.94531 629.78 3.375C628.657 3.80469 628.105 4.41016 628.125 5.19141C628.115 5.99219 628.662 6.60254 629.766 7.02246C630.879 7.44238 632.49 7.65234 634.6 7.65234C636.699 7.65234 638.306 7.44238 639.419 7.02246C640.542 6.60254 641.104 5.99219 641.104 5.19141C641.104 4.41016 640.537 3.80469 639.404 3.375C638.281 2.94531 636.68 2.73047 634.6 2.73047ZM646.582 13.5703H622.646V11.3438H646.582V13.5703ZM643.564 21.7441H628.271V24.0879H644.297V26.2266H625.547V19.7227H640.811V17.6719H625.518V15.5918H643.564V21.7441ZM677.783 20.2793H675V14.8594H670.781V12.6328H675V9.38086H670.781V7.0957H675V0.269531H677.783V20.2793ZM670.693 5.57227H655.928V3.31641H662.08V0.240234H664.834V3.31641H670.693V5.57227ZM663.428 6.83203C664.6 6.83203 665.64 7.04688 666.548 7.47656C667.466 7.89648 668.184 8.4873 668.701 9.24902C669.219 10.0107 669.482 10.8848 669.492 11.8711C669.482 12.8672 669.219 13.751 668.701 14.5225C668.184 15.2842 667.466 15.8799 666.548 16.3096C665.64 16.7295 664.6 16.9395 663.428 16.9395C662.256 16.9395 661.211 16.7295 660.293 16.3096C659.385 15.8799 658.672 15.2842 658.154 14.5225C657.646 13.751 657.393 12.8672 657.393 11.8711C657.393 10.8848 657.646 10.0107 658.154 9.24902C658.672 8.4873 659.385 7.89648 660.293 7.47656C661.211 7.04688 662.256 6.83203 663.428 6.83203ZM663.428 9C662.744 9.00977 662.144 9.13672 661.626 9.38086C661.108 9.61523 660.708 9.94727 660.425 10.377C660.142 10.8066 660 11.3047 660 11.8711C660 12.7598 660.312 13.4678 660.938 13.9951C661.562 14.5127 662.393 14.7715 663.428 14.7715C664.102 14.7715 664.697 14.6543 665.215 14.4199C665.732 14.1855 666.138 13.8486 666.431 13.4092C666.724 12.9697 666.875 12.457 666.885 11.8711C666.875 11.3047 666.724 10.8066 666.431 10.377C666.138 9.94727 665.732 9.61523 665.215 9.38086C664.697 9.13672 664.102 9.00977 663.428 9ZM678.369 25.9336H660.645V18.5215H663.457V23.6777H678.369V25.9336Z" fill="#CCCCCC"/>
</svg>
