<svg width="357" height="27" viewBox="0 0 357 27" fill="none" xmlns="http://www.w3.org/2000/svg">
<path d="M22.4961 26.4902H19.8301V12.9258H16.4316V25.1426H13.8828V0.767578H16.4316V10.6406H19.8301V0.240234H22.4961V26.4902ZM10.6895 5.66016H3.62891V17.8184C5.34766 17.7988 6.85156 17.7402 8.14062 17.6426C9.43945 17.5449 10.7578 17.3691 12.0957 17.1152L12.3008 19.4004C10.8262 19.7031 9.37109 19.9082 7.93555 20.0156C6.5 20.1133 4.72266 20.1719 2.60352 20.1914H0.845703V3.4043H10.6895V5.66016ZM35.2988 4.89844C35.2988 6.00195 35.5527 7.07617 36.0605 8.12109C36.5684 9.16602 37.3008 10.0986 38.2578 10.9189C39.2148 11.7393 40.3379 12.3691 41.627 12.8086L40.1914 14.9766C38.7461 14.4688 37.4814 13.7217 36.3975 12.7354C35.3232 11.7393 34.498 10.582 33.9219 9.26367C33.3457 10.7285 32.4912 12.0127 31.3584 13.1162C30.2354 14.21 28.9023 15.0254 27.3594 15.5625L25.9238 13.3652C27.2422 12.916 28.3945 12.2568 29.3809 11.3877C30.3672 10.5088 31.124 9.50781 31.6514 8.38477C32.1885 7.26172 32.457 6.10938 32.457 4.92773V4.19531H26.7734V1.93945H40.9238V4.19531H35.2988V4.89844ZM47.7793 26.4902H44.9961V19.5176H29.9961V17.2617H47.7793V26.4902ZM47.7793 15.9434H44.9961V9.20508H40.1328V6.91992H44.9961V0.240234H47.7793V15.9434ZM79.7715 6.42188H83.5801V8.73633H79.7715V15.0645H76.9883V0.240234H79.7715V6.42188ZM72.5352 1.88086C72.5254 4.10742 72.0322 6.11426 71.0557 7.90137C70.0889 9.68848 68.6826 11.2168 66.8369 12.4863C64.9912 13.7559 62.7598 14.7422 60.1426 15.4453L59.0293 13.2188C61.0996 12.6719 62.8867 11.9541 64.3906 11.0654C65.9043 10.167 67.0957 9.13672 67.9648 7.97461C68.834 6.80273 69.3516 5.5332 69.5176 4.16602H60.2598V1.88086H72.5352ZM79.7715 26.1387H62.9551V16.1777H79.7715V26.1387ZM65.7383 23.9121H77.0176V18.4922H65.7383V23.9121ZM105.699 6.71484H109.508V9.05859H105.699V15.5918H102.916V0.240234H105.699V6.71484ZM98.4336 1.85156C98.4336 4.08789 97.9453 6.09961 96.9688 7.88672C96.002 9.67383 94.5957 11.1973 92.75 12.457C90.9043 13.7168 88.6777 14.6836 86.0703 15.3574L84.9277 13.2188C87.0078 12.6719 88.8047 11.9541 90.3184 11.0654C91.8418 10.167 93.0381 9.12695 93.9072 7.94531C94.7764 6.76367 95.2891 5.48438 95.4453 4.10742H86.1875V1.85156H98.4336ZM105.699 26.4902H102.916V18.9902H88.3555V16.7344H105.699V26.4902ZM122.955 1.82227C124.781 1.82227 126.432 2.12988 127.906 2.74512C129.381 3.35059 130.538 4.20996 131.378 5.32324C132.228 6.42676 132.652 7.70117 132.652 9.14648C132.652 10.5918 132.228 11.8711 131.378 12.9844C130.538 14.0977 129.381 14.9619 127.906 15.5771C126.432 16.1826 124.781 16.4805 122.955 16.4707C121.129 16.4805 119.479 16.1826 118.004 15.5771C116.539 14.9619 115.387 14.0977 114.547 12.9844C113.707 11.8711 113.287 10.5918 113.287 9.14648C113.287 7.70117 113.707 6.42676 114.547 5.32324C115.387 4.20996 116.539 3.35059 118.004 2.74512C119.479 2.12988 121.129 1.82227 122.955 1.82227ZM122.955 4.07812C121.627 4.06836 120.426 4.27832 119.352 4.70801C118.287 5.12793 117.452 5.72363 116.847 6.49512C116.241 7.2666 115.943 8.15039 115.953 9.14648C115.943 10.1523 116.241 11.0361 116.847 11.7979C117.452 12.5596 118.287 13.1504 119.352 13.5703C120.416 13.9805 121.617 14.1855 122.955 14.1855C124.293 14.1855 125.489 13.9805 126.544 13.5703C127.608 13.1504 128.443 12.5596 129.049 11.7979C129.654 11.0361 129.957 10.1523 129.957 9.14648C129.957 8.15039 129.654 7.2666 129.049 6.49512C128.443 5.72363 127.608 5.12793 126.544 4.70801C125.479 4.27832 124.283 4.06836 122.955 4.07812ZM135.025 23.0918H111.002V20.7773H135.025V23.0918ZM160.953 23.3555H136.93V21.0117H147.506V16.4121H139.859V8.0625H155.27V4.37109H139.801V2.08594H158.023V10.2891H142.613V14.127H158.639V16.4121H150.26V21.0117H160.953V23.3555ZM192.857 26.4902H190.191V13.0137H187.057V25.2012H184.42V0.738281H187.057V10.6699H190.191V0.240234H192.857V26.4902ZM178.15 7.18359C178.15 8.78516 178.355 10.2988 178.766 11.7246C179.176 13.1504 179.796 14.4199 180.626 15.5332C181.466 16.6367 182.506 17.5059 183.746 18.1406L182.105 20.2793C180.846 19.5957 179.776 18.668 178.897 17.4961C178.019 16.3242 177.34 14.9619 176.861 13.4092C176.402 15.167 175.729 16.71 174.84 18.0381C173.961 19.3662 172.867 20.416 171.559 21.1875L169.83 19.0781C171.695 18.0234 173.097 16.4512 174.034 14.3613C174.981 12.2715 175.455 9.87891 175.455 7.18359V5.48438H170.533V3.22852H182.721V5.48438H178.15V7.18359ZM209.088 6.83203H196.051V4.57617H201.207V1.00195H203.961V4.57617H209.088V6.83203ZM202.584 8.41406C203.688 8.41406 204.669 8.67285 205.528 9.19043C206.388 9.69824 207.062 10.4111 207.55 11.3291C208.038 12.2373 208.287 13.2773 208.297 14.4492C208.287 15.6309 208.038 16.6855 207.55 17.6133C207.062 18.5312 206.388 19.249 205.528 19.7666C204.669 20.2842 203.688 20.543 202.584 20.543C201.5 20.543 200.523 20.2842 199.654 19.7666C198.785 19.249 198.106 18.5264 197.618 17.5986C197.13 16.6709 196.891 15.6211 196.9 14.4492C196.891 13.2871 197.13 12.2471 197.618 11.3291C198.106 10.4111 198.785 9.69824 199.654 9.19043C200.523 8.67285 201.5 8.41406 202.584 8.41406ZM202.584 10.7285C201.959 10.7285 201.402 10.8896 200.914 11.2119C200.426 11.5244 200.045 11.9639 199.771 12.5303C199.498 13.0967 199.361 13.7363 199.361 14.4492C199.361 15.1816 199.498 15.8311 199.771 16.3975C200.045 16.9541 200.426 17.3887 200.914 17.7012C201.402 18.0137 201.959 18.1699 202.584 18.1699C203.209 18.1699 203.766 18.0137 204.254 17.7012C204.752 17.3887 205.138 16.9541 205.411 16.3975C205.694 15.8311 205.836 15.1816 205.836 14.4492C205.836 13.7363 205.694 13.0967 205.411 12.5303C205.138 11.9639 204.752 11.5244 204.254 11.2119C203.756 10.8896 203.199 10.7285 202.584 10.7285ZM218.58 26.4902H215.943V13.4531H212.926V25.2598H210.289V0.826172H212.926V11.168H215.943V0.240234H218.58V26.4902ZM231.295 4.42969C231.285 5.5918 231.534 6.70996 232.042 7.78418C232.55 8.8584 233.282 9.81055 234.239 10.6406C235.196 11.4609 236.324 12.0859 237.623 12.5156L236.1 14.7422C234.674 14.2344 233.434 13.4775 232.379 12.4717C231.324 11.4561 230.509 10.2744 229.933 8.92676C229.356 10.4014 228.517 11.6904 227.413 12.7939C226.319 13.8877 225.016 14.7227 223.502 15.2988L222.008 13.043C223.355 12.5742 224.513 11.9004 225.479 11.0215C226.456 10.1328 227.203 9.1123 227.721 7.95996C228.238 6.79785 228.502 5.57227 228.512 4.2832V1.58789H231.295V4.42969ZM243.922 26.4902H241.139V19.3711H226.139V17.1738H243.922V26.4902ZM243.922 15.7969H241.139V7.82812H235.602V5.54297H241.139V0.240234H243.922V15.7969ZM270.348 16.5H267.711V9.58594H264.723V16.1191H262.115V0.650391H264.723V7.33008H267.711V0.269531H270.348V16.5ZM261.09 5.30859H247.818V3.08203H253.121V0.357422H255.875V3.08203H261.09V5.30859ZM254.469 6.48047C255.572 6.48047 256.554 6.6709 257.413 7.05176C258.282 7.42285 258.956 7.9502 259.435 8.63379C259.913 9.31738 260.152 10.1133 260.152 11.0215C260.152 11.9102 259.908 12.6963 259.42 13.3799C258.941 14.0635 258.272 14.5957 257.413 14.9766C256.554 15.3477 255.572 15.5332 254.469 15.5332C253.385 15.5332 252.413 15.3477 251.554 14.9766C250.704 14.5957 250.04 14.0635 249.562 13.3799C249.083 12.6963 248.844 11.9102 248.844 11.0215C248.844 10.123 249.083 9.33203 249.562 8.64844C250.04 7.95508 250.704 7.42285 251.554 7.05176C252.413 6.6709 253.385 6.48047 254.469 6.48047ZM254.469 8.53125C253.531 8.53125 252.774 8.75586 252.198 9.20508C251.622 9.6543 251.334 10.2598 251.334 11.0215C251.334 11.5098 251.466 11.9395 251.729 12.3105C251.993 12.6816 252.359 12.9697 252.828 13.1748C253.307 13.3799 253.854 13.4824 254.469 13.4824C255.426 13.4824 256.192 13.2578 256.769 12.8086C257.345 12.3594 257.633 11.7637 257.633 11.0215C257.633 10.25 257.34 9.64453 256.754 9.20508C256.178 8.75586 255.416 8.53125 254.469 8.53125ZM257.516 18.0527C257.496 19.1758 257.774 20.2451 258.351 21.2607C258.937 22.2764 259.796 23.1016 260.929 23.7363C261.69 23.2773 262.335 22.7305 262.862 22.0957C263.399 21.4512 263.8 20.7822 264.063 20.0889C264.327 19.3857 264.459 18.707 264.459 18.0527V17.2617H267.213V18.0527C267.213 18.9023 267.413 19.7275 267.813 20.5283C268.224 21.3291 268.819 22.042 269.601 22.667C270.382 23.2822 271.324 23.7461 272.428 24.0586L271.109 26.168C269.84 25.7578 268.756 25.1523 267.857 24.3516C266.969 23.5508 266.29 22.6133 265.821 21.5391C265.372 22.623 264.742 23.5898 263.932 24.4395C263.131 25.2988 262.154 25.9531 261.002 26.4023C259.801 25.9629 258.79 25.333 257.97 24.5127C257.149 23.6924 256.524 22.7402 256.095 21.6562C255.606 22.6816 254.918 23.585 254.029 24.3662C253.15 25.1475 252.105 25.748 250.895 26.168L249.576 24.0586C250.65 23.7168 251.578 23.2285 252.359 22.5938C253.15 21.959 253.751 21.2461 254.161 20.4551C254.571 19.6543 254.781 18.8535 254.791 18.0527V17.2617H257.516V18.0527ZM279.605 18.7559H291.939V15.9727H294.723V26.168H276.852V15.9727H279.605V18.7559ZM291.939 23.9414V20.9238H279.605V23.9414H291.939ZM297.828 14.332H273.893V12.0176H297.828V14.332ZM287.281 1.64648C287.281 2.63281 287.696 3.59473 288.526 4.53223C289.366 5.45996 290.489 6.25586 291.896 6.91992C293.312 7.57422 294.85 8.00391 296.51 8.20898L295.514 10.4062C293.365 10.1035 291.427 9.47363 289.698 8.5166C287.979 7.55957 286.7 6.39258 285.86 5.01562C285.021 6.40234 283.736 7.57422 282.008 8.53125C280.289 9.47852 278.365 10.1035 276.236 10.4062L275.182 8.20898C276.861 7.99414 278.409 7.56445 279.825 6.91992C281.241 6.27539 282.364 5.48926 283.194 4.56152C284.024 3.63379 284.439 2.66211 284.439 1.64648V0.533203H287.281V1.64648ZM321.617 26.4902H318.834V0.240234H321.617V26.4902ZM304.186 17.4082C308.482 17.3789 312.506 16.9785 316.256 16.207L316.637 18.5508C314.41 19 312.232 19.3223 310.104 19.5176C307.975 19.7129 305.816 19.8105 303.629 19.8105H301.432V2.78906H304.186V17.4082ZM346.197 10.4062H350.416V12.6914H346.197V26.5488H343.414V0.240234H346.197V10.4062ZM339.137 5.01562H329.645V17.7012C331.969 17.6914 334.01 17.623 335.768 17.4961C337.535 17.3691 339.312 17.1445 341.1 16.8223L341.451 19.166C339.645 19.4883 337.867 19.7129 336.119 19.8398C334.381 19.957 332.369 20.0156 330.084 20.0156H328.971H326.861V2.75977H339.137V5.01562ZM354.664 24.2051C354.293 24.2051 353.941 24.1123 353.609 23.9268C353.287 23.7412 353.033 23.4873 352.848 23.165C352.662 22.8428 352.574 22.4961 352.584 22.125C352.574 21.7539 352.662 21.4072 352.848 21.085C353.033 20.7627 353.287 20.5088 353.609 20.3232C353.941 20.1377 354.293 20.0449 354.664 20.0449C355.025 20.0449 355.367 20.1377 355.689 20.3232C356.012 20.5088 356.266 20.7627 356.451 21.085C356.646 21.4072 356.744 21.7539 356.744 22.125C356.744 22.4961 356.646 22.8428 356.451 23.165C356.266 23.4873 356.012 23.7412 355.689 23.9268C355.367 24.1123 355.025 24.2051 354.664 24.2051Z" fill="#CCCCCC"/>
</svg>
