<svg width="810" height="73" viewBox="0 0 810 73" fill="none" xmlns="http://www.w3.org/2000/svg">
<path d="M20.9375 11.5679C20.9375 14.0054 21.3828 16.3491 22.2734 18.5991C23.1875 20.8491 24.5703 22.8765 26.4219 24.6812C28.2734 26.4858 30.5469 27.9272 33.2422 29.0054L29.0234 34.9819C26.3047 33.8804 23.9492 32.3452 21.957 30.3765C19.9883 28.4077 18.418 26.1108 17.2461 23.4858C16.0273 26.4624 14.3633 29.0874 12.2539 31.3608C10.1445 33.6343 7.625 35.4038 4.69531 36.6694L0.546875 30.6226C3.33594 29.3804 5.69141 27.7397 7.61328 25.7007C9.53516 23.6382 10.9766 21.3882 11.9375 18.9507C12.8984 16.5132 13.3906 14.0522 13.4141 11.5679V3.8335H20.9375V11.5679ZM55.4609 38.5679H48.0078V22.396H41.6797V38.2163H34.3672V1.16162H41.6797V15.9272H48.0078V0.106934H55.4609V38.5679ZM55.4609 63.5991H47.6562V47.8491H11.9375V41.5913H55.4609V63.5991ZM113.117 24.1538H122.891V30.5522H113.117V63.6694H105.312V0.0366211H113.117V24.1538ZM95.6797 12.4116H73.7422V41.5913C78.875 41.5913 83.5039 41.439 87.6289 41.1343C91.7539 40.8296 95.9375 40.3022 100.18 39.5522L101.094 46.1616C96.5 46.9585 91.9531 47.4858 87.4531 47.7437C82.9766 48.0015 77.5625 48.1304 71.2109 48.1304H65.9375V6.0835H95.6797V12.4116ZM183.57 40.9585H125.492V34.7007H183.57V40.9585ZM177.805 62.3335H132.945V44.9663H140.82V56.0054H177.805V62.3335ZM176.398 18.6694H140.609V24.0835H177.664V29.9897H132.875V13.0444H168.594V7.84131H132.664V1.72412H176.398V18.6694ZM233.492 39.7632C238.086 39.7866 242.07 40.2788 245.445 41.2397C248.82 42.1772 251.422 43.5366 253.25 45.3179C255.102 47.0991 256.039 49.2319 256.062 51.7163C256.039 54.1538 255.102 56.2515 253.25 58.0093C251.422 59.7905 248.809 61.1499 245.41 62.0874C242.035 63.0483 238.062 63.5288 233.492 63.5288C228.945 63.5288 224.973 63.0483 221.574 62.0874C218.199 61.1499 215.586 59.7905 213.734 58.0093C211.906 56.2515 210.992 54.1538 210.992 51.7163C210.992 49.2319 211.906 47.0991 213.734 45.3179C215.586 43.5366 218.199 42.1772 221.574 41.2397C224.949 40.2788 228.922 39.7866 233.492 39.7632ZM233.492 45.6694C228.898 45.6694 225.301 46.1968 222.699 47.2515C220.121 48.3062 218.844 49.7944 218.867 51.7163C218.844 53.5679 220.121 54.9976 222.699 56.0054C225.277 56.9897 228.875 57.4819 233.492 57.4819C238.133 57.4819 241.754 56.9897 244.355 56.0054C246.98 54.9976 248.305 53.5679 248.328 51.7163C248.305 49.7944 246.98 48.3062 244.355 47.2515C241.754 46.1968 238.133 45.6694 233.492 45.6694ZM255.641 8.3335C255.641 11.7085 255.535 14.6382 255.324 17.1226C255.137 19.6069 254.656 22.3022 253.883 25.2085L246.148 24.5054C246.852 21.7163 247.309 19.1968 247.52 16.9468C247.73 14.6733 247.836 12.1069 247.836 9.24756H211.625V3.06006H255.641V8.3335ZM262.672 35.1929H205.016V28.8647H227.375V17.3335H235.109V28.8647H262.672V35.1929ZM317.234 18.3179H326.094V24.8569H317.234V45.8804H309.289V0.0366211H317.234V18.3179ZM299.938 4.88818C299.938 10.4663 298.766 15.5171 296.422 20.0405C294.078 24.5405 290.68 28.4194 286.227 31.6772C281.797 34.9116 276.43 37.4429 270.125 39.271L266.891 33.0835C271.695 31.7007 275.844 29.9312 279.336 27.7749C282.852 25.5952 285.629 23.1108 287.668 20.3218C289.707 17.5327 290.949 14.521 291.395 11.2866H269.562V4.88818H299.938ZM319.625 62.3335H276.383V41.1694H284.328V56.0054H319.625V62.3335ZM335.797 72.0366H329.117L332.773 52.3491H341.703L335.797 72.0366ZM381.852 4.67725C385.039 4.67725 387.875 5.60303 390.359 7.45459C392.844 9.28271 394.789 11.896 396.195 15.2944C397.625 18.6694 398.352 22.6069 398.375 27.1069C398.352 31.6538 397.625 35.6265 396.195 39.0249C394.789 42.4233 392.844 45.0366 390.359 46.8647C387.875 48.6929 385.039 49.6069 381.852 49.6069C378.641 49.6069 375.781 48.6929 373.273 46.8647C370.766 45.0132 368.809 42.3882 367.402 38.9897C365.996 35.5913 365.305 31.6304 365.328 27.1069C365.305 22.6304 365.996 18.6929 367.402 15.2944C368.809 11.896 370.766 9.28271 373.273 7.45459C375.781 5.60303 378.641 4.67725 381.852 4.67725ZM381.852 11.7085C380.07 11.7085 378.5 12.3296 377.141 13.5718C375.781 14.7905 374.727 16.5601 373.977 18.8804C373.227 21.1772 372.852 23.9194 372.852 27.1069C372.852 30.3179 373.227 33.0835 373.977 35.4038C374.727 37.7241 375.781 39.5054 377.141 40.7476C378.5 41.9663 380.07 42.5757 381.852 42.5757C383.656 42.5757 385.238 41.9663 386.598 40.7476C387.957 39.5054 389 37.7241 389.727 35.4038C390.477 33.0835 390.852 30.3179 390.852 27.1069C390.852 23.9194 390.477 21.1655 389.727 18.8452C389 16.5249 387.957 14.7554 386.598 13.5366C385.238 12.3179 383.656 11.7085 381.852 11.7085ZM414.547 24.4351H424.32V31.0444H414.547V63.5991H406.742V0.0366211H414.547V24.4351ZM462.5 11.9194H438.383V23.2397H459.969V29.4272H438.383V42.5054C444.008 42.4819 448.918 42.3413 453.113 42.0835C457.309 41.8022 461.562 41.3101 465.875 40.6069L466.648 46.9351C461.914 47.6616 457.203 48.1655 452.516 48.4468C447.828 48.7046 442.32 48.8335 435.992 48.8335H430.648V5.521H462.5V11.9194ZM480.078 63.5991H472.203V0.0366211H480.078V63.5991ZM522.055 8.75537C522.055 12.0132 523.039 15.189 525.008 18.2827C527 21.3765 529.742 24.0483 533.234 26.2983C536.727 28.5249 540.641 30.0132 544.977 30.7632L541.461 37.3022C536.141 36.1772 531.406 34.103 527.258 31.0796C523.133 28.0327 520.039 24.3647 517.977 20.0757C515.867 24.3413 512.738 27.9976 508.59 31.0444C504.441 34.0679 499.719 36.1538 494.422 37.3022L490.977 30.7632C495.266 29.9897 499.133 28.4897 502.578 26.2632C506.047 24.0132 508.766 21.3413 510.734 18.2476C512.727 15.1538 513.734 11.9897 513.758 8.75537V4.04443H522.055V8.75537ZM547.297 55.5132H489.219V49.0444H547.297V55.5132ZM603.125 39.5522H558.547V5.02881H602.562V11.3569H566.492V19.021H601.086V25.1382H566.492V33.3647H603.125V39.5522ZM609.523 55.8647H551.445V49.4663H609.523V55.8647ZM663.945 2.91943C663.922 8.54443 662.891 13.4429 660.852 17.6147C658.812 21.7632 655.66 25.2671 651.395 28.1265C647.152 30.9624 641.68 33.2007 634.977 34.8413L632.164 28.8647C641.211 26.7554 647.621 23.521 651.395 19.1616L633.43 20.4976L632.234 14.521L654.594 13.6772C655.086 12.2944 655.426 10.7476 655.613 9.03662H635.469V2.91943H663.945ZM683.984 32.4507H676.18V20.6382H664.086V14.2397H676.18V0.0366211H683.984V32.4507ZM683.984 51.5054H649.883V56.6382H685.672V62.8257H642.219V45.8101H676.25V41.0991H642.148V34.9819H683.984V51.5054ZM747.336 63.5991H739.531V48.6226H703.953V42.3647H747.336V63.5991ZM718.156 23.521H703.25V30.8687C707 30.8218 710.363 30.6812 713.34 30.4468C716.316 30.189 719.375 29.7788 722.516 29.2163L723.289 35.4038C719.727 36.0601 716.199 36.5054 712.707 36.7397C709.238 36.9741 704.984 37.0913 699.945 37.0913H695.656V17.8257H710.633V11.0054H695.586V4.81787H718.156V23.521ZM747.336 39.5522H739.883V0.106934H747.336V39.5522ZM734.469 39.271H727.086V21.9038H720.477V15.5757H727.086V1.30225H734.469V39.271ZM778.344 11.2866C778.344 14.3101 778.906 17.228 780.031 20.0405C781.156 22.853 782.82 25.3726 785.023 27.5991C787.25 29.8022 789.945 31.4897 793.109 32.6616L788.75 38.7085C785.422 37.396 782.539 35.4858 780.102 32.978C777.688 30.4702 775.801 27.5288 774.441 24.1538C773.059 27.7397 771.078 30.8687 768.5 33.5405C765.945 36.189 762.875 38.2163 759.289 39.6226L755.07 33.4351C758.352 32.2397 761.141 30.5171 763.438 28.2671C765.758 26.0171 767.504 23.4272 768.676 20.4976C769.848 17.5679 770.445 14.4976 770.469 11.2866V3.69287H778.344V11.2866ZM808.438 47.2866H800.633V27.5991H789.031V21.3413H800.633V15.0835H789.031V8.75537H800.633V0.106934H808.438V47.2866ZM809.844 62.3335H766.531V42.646H774.477V56.0054H809.844V62.3335Z" fill="#CCCCCC"/>
</svg>
